<mxfile host="app.diagrams.net" modified="2023-05-26T17:18:12.142Z" agent="Mozilla/5.0 (Windows NT 10.0; Win64; x64) AppleWebKit/537.36 (KHTML, like Gecko) Chrome/113.0.0.0 Safari/537.36" etag="rTweMNcyuVWGa_rDDDLs" version="21.3.2" type="device" pages="11">
  <diagram name="Page-1" id="yJiiofY-KBGTufnyFJbA">
    <mxGraphModel dx="1971" dy="676" grid="1" gridSize="10" guides="1" tooltips="1" connect="1" arrows="1" fold="1" page="1" pageScale="1" pageWidth="827" pageHeight="1169" math="0" shadow="0">
      <root>
        <mxCell id="0" />
        <mxCell id="1" parent="0" />
        <mxCell id="P8LJyIE7DeACisC1q10v-73" style="edgeStyle=orthogonalEdgeStyle;rounded=0;orthogonalLoop=1;jettySize=auto;html=1;entryX=0;entryY=0.5;entryDx=0;entryDy=0;exitX=0;exitY=0.5;exitDx=0;exitDy=0;exitPerimeter=0;" parent="1" source="P8LJyIE7DeACisC1q10v-171" target="P8LJyIE7DeACisC1q10v-80" edge="1">
          <mxGeometry relative="1" as="geometry">
            <mxPoint x="424" y="358.92999999999984" as="sourcePoint" />
          </mxGeometry>
        </mxCell>
        <mxCell id="P8LJyIE7DeACisC1q10v-172" style="edgeStyle=orthogonalEdgeStyle;rounded=0;orthogonalLoop=1;jettySize=auto;html=1;entryX=1;entryY=0.5;entryDx=0;entryDy=0;entryPerimeter=0;exitX=1;exitY=0.25;exitDx=0;exitDy=0;endArrow=none;endFill=0;" parent="1" target="P8LJyIE7DeACisC1q10v-171" edge="1">
          <mxGeometry relative="1" as="geometry">
            <mxPoint x="421" y="354.05999999999995" as="targetPoint" />
            <mxPoint x="376" y="359.05999999999995" as="sourcePoint" />
          </mxGeometry>
        </mxCell>
        <mxCell id="P8LJyIE7DeACisC1q10v-76" value="" style="endArrow=none;html=1;rounded=0;endFill=0;" parent="1" edge="1">
          <mxGeometry width="50" height="50" relative="1" as="geometry">
            <mxPoint x="111" y="340" as="sourcePoint" />
            <mxPoint x="186" y="340" as="targetPoint" />
          </mxGeometry>
        </mxCell>
        <mxCell id="P8LJyIE7DeACisC1q10v-78" value="" style="ellipse;whiteSpace=wrap;html=1;aspect=fixed;" parent="1" vertex="1">
          <mxGeometry x="91" y="330" width="20" height="20" as="geometry" />
        </mxCell>
        <mxCell id="P8LJyIE7DeACisC1q10v-79" value="" style="ellipse;whiteSpace=wrap;html=1;aspect=fixed;" parent="1" vertex="1">
          <mxGeometry x="96" y="335" width="10" height="10" as="geometry" />
        </mxCell>
        <mxCell id="P8LJyIE7DeACisC1q10v-80" value="" style="ellipse;whiteSpace=wrap;html=1;aspect=fixed;" parent="1" vertex="1">
          <mxGeometry x="486" y="349.05999999999995" width="20" height="20" as="geometry" />
        </mxCell>
        <mxCell id="P8LJyIE7DeACisC1q10v-81" value="" style="ellipse;whiteSpace=wrap;html=1;aspect=fixed;" parent="1" vertex="1">
          <mxGeometry x="491" y="354.05999999999995" width="10" height="10" as="geometry" />
        </mxCell>
        <mxCell id="P8LJyIE7DeACisC1q10v-90" value="" style="endArrow=none;html=1;rounded=0;" parent="1" edge="1">
          <mxGeometry width="50" height="50" relative="1" as="geometry">
            <mxPoint x="-184" y="198" as="sourcePoint" />
            <mxPoint x="-144" y="198" as="targetPoint" />
          </mxGeometry>
        </mxCell>
        <mxCell id="P8LJyIE7DeACisC1q10v-91" value="" style="endArrow=none;html=1;rounded=0;exitX=0;exitY=1;exitDx=0;exitDy=0;exitPerimeter=0;edgeStyle=orthogonalEdgeStyle;" parent="1" source="P8LJyIE7DeACisC1q10v-92" edge="1">
          <mxGeometry width="50" height="50" relative="1" as="geometry">
            <mxPoint x="-164" y="228" as="sourcePoint" />
            <mxPoint x="-164" y="198" as="targetPoint" />
            <Array as="points">
              <mxPoint x="-164" y="236" />
            </Array>
          </mxGeometry>
        </mxCell>
        <mxCell id="P8LJyIE7DeACisC1q10v-100" style="edgeStyle=orthogonalEdgeStyle;rounded=0;orthogonalLoop=1;jettySize=auto;html=1;exitX=1;exitY=1;exitDx=0;exitDy=0;exitPerimeter=0;entryX=0.5;entryY=0;entryDx=0;entryDy=0;" parent="1" source="P8LJyIE7DeACisC1q10v-92" target="P8LJyIE7DeACisC1q10v-178" edge="1">
          <mxGeometry relative="1" as="geometry">
            <mxPoint x="62.379999999999995" y="232.81395348837214" as="targetPoint" />
            <Array as="points">
              <mxPoint x="331" y="235" />
            </Array>
          </mxGeometry>
        </mxCell>
        <mxCell id="P8LJyIE7DeACisC1q10v-92" value="" style="pointerEvents=1;verticalLabelPosition=bottom;shadow=0;dashed=0;align=center;html=1;verticalAlign=top;shape=mxgraph.electrical.inductors.inductor_3;" parent="1" vertex="1">
          <mxGeometry x="-129" y="228" width="45" height="8" as="geometry" />
        </mxCell>
        <mxCell id="P8LJyIE7DeACisC1q10v-93" value="" style="pointerEvents=1;verticalLabelPosition=bottom;shadow=0;dashed=0;align=center;html=1;verticalAlign=top;shape=mxgraph.electrical.capacitors.capacitor_1;rotation=90;" parent="1" vertex="1">
          <mxGeometry x="-84" y="248" width="45" height="20" as="geometry" />
        </mxCell>
        <mxCell id="P8LJyIE7DeACisC1q10v-95" value="" style="pointerEvents=1;verticalLabelPosition=bottom;shadow=0;dashed=0;align=center;html=1;verticalAlign=top;shape=mxgraph.electrical.signal_sources.signal_ground;" parent="1" vertex="1">
          <mxGeometry x="-71.5" y="278" width="20" height="20" as="geometry" />
        </mxCell>
        <mxCell id="P8LJyIE7DeACisC1q10v-96" value="" style="pointerEvents=1;verticalLabelPosition=bottom;shadow=0;dashed=0;align=center;html=1;verticalAlign=top;shape=mxgraph.electrical.capacitors.capacitor_1;rotation=90;" parent="1" vertex="1">
          <mxGeometry x="-39" y="248" width="45" height="20" as="geometry" />
        </mxCell>
        <mxCell id="P8LJyIE7DeACisC1q10v-97" value="" style="pointerEvents=1;verticalLabelPosition=bottom;shadow=0;dashed=0;align=center;html=1;verticalAlign=top;shape=mxgraph.electrical.signal_sources.signal_ground;" parent="1" vertex="1">
          <mxGeometry x="-26.5" y="278" width="20" height="20" as="geometry" />
        </mxCell>
        <mxCell id="P8LJyIE7DeACisC1q10v-98" value="" style="pointerEvents=1;verticalLabelPosition=bottom;shadow=0;dashed=0;align=center;html=1;verticalAlign=top;shape=mxgraph.electrical.capacitors.capacitor_1;rotation=90;" parent="1" vertex="1">
          <mxGeometry x="5.999999999999993" y="248" width="45" height="20" as="geometry" />
        </mxCell>
        <mxCell id="P8LJyIE7DeACisC1q10v-99" value="" style="pointerEvents=1;verticalLabelPosition=bottom;shadow=0;dashed=0;align=center;html=1;verticalAlign=top;shape=mxgraph.electrical.signal_sources.signal_ground;" parent="1" vertex="1">
          <mxGeometry x="18.499999999999993" y="278" width="20" height="20" as="geometry" />
        </mxCell>
        <mxCell id="P8LJyIE7DeACisC1q10v-127" style="edgeStyle=orthogonalEdgeStyle;rounded=0;orthogonalLoop=1;jettySize=auto;html=1;exitX=1;exitY=0.5;exitDx=0;exitDy=0;exitPerimeter=0;endArrow=none;endFill=0;" parent="1" source="P8LJyIE7DeACisC1q10v-125" edge="1">
          <mxGeometry relative="1" as="geometry">
            <mxPoint x="169.90697674418607" y="340" as="targetPoint" />
          </mxGeometry>
        </mxCell>
        <mxCell id="P8LJyIE7DeACisC1q10v-125" value="" style="pointerEvents=1;verticalLabelPosition=bottom;shadow=0;dashed=0;align=center;html=1;verticalAlign=top;shape=mxgraph.electrical.resistors.resistor_2;rotation=90;" parent="1" vertex="1">
          <mxGeometry x="153.75" y="310" width="32.25" height="6.25" as="geometry" />
        </mxCell>
        <mxCell id="P8LJyIE7DeACisC1q10v-128" value="" style="endArrow=none;html=1;rounded=0;entryX=0;entryY=0.5;entryDx=0;entryDy=0;entryPerimeter=0;edgeStyle=orthogonalEdgeStyle;" parent="1" target="P8LJyIE7DeACisC1q10v-125" edge="1">
          <mxGeometry width="50" height="50" relative="1" as="geometry">
            <mxPoint x="116" y="290" as="sourcePoint" />
            <mxPoint x="166" y="270" as="targetPoint" />
            <Array as="points">
              <mxPoint x="170" y="290" />
            </Array>
          </mxGeometry>
        </mxCell>
        <mxCell id="P8LJyIE7DeACisC1q10v-144" style="edgeStyle=orthogonalEdgeStyle;rounded=0;orthogonalLoop=1;jettySize=auto;html=1;" parent="1" source="P8LJyIE7DeACisC1q10v-132" edge="1">
          <mxGeometry relative="1" as="geometry">
            <mxPoint x="286" y="340" as="targetPoint" />
          </mxGeometry>
        </mxCell>
        <mxCell id="P8LJyIE7DeACisC1q10v-132" value="" style="pointerEvents=1;verticalLabelPosition=bottom;shadow=0;dashed=0;align=center;html=1;verticalAlign=top;shape=mxgraph.electrical.capacitors.capacitor_1;rotation=-180;" parent="1" vertex="1">
          <mxGeometry x="186" y="330" width="45" height="20" as="geometry" />
        </mxCell>
        <mxCell id="P8LJyIE7DeACisC1q10v-133" value="" style="pointerEvents=1;verticalLabelPosition=bottom;shadow=0;dashed=0;align=center;html=1;verticalAlign=top;shape=mxgraph.electrical.resistors.resistor_2;rotation=90;" parent="1" vertex="1">
          <mxGeometry x="246" y="355" width="32.25" height="6.25" as="geometry" />
        </mxCell>
        <mxCell id="P8LJyIE7DeACisC1q10v-134" value="" style="pointerEvents=1;verticalLabelPosition=bottom;shadow=0;dashed=0;align=center;html=1;verticalAlign=top;shape=mxgraph.electrical.resistors.resistor_2;rotation=90;" parent="1" vertex="1">
          <mxGeometry x="246" y="385" width="32.25" height="6.25" as="geometry" />
        </mxCell>
        <mxCell id="P8LJyIE7DeACisC1q10v-143" style="edgeStyle=orthogonalEdgeStyle;rounded=0;orthogonalLoop=1;jettySize=auto;html=1;endArrow=none;endFill=0;" parent="1" source="P8LJyIE7DeACisC1q10v-135" edge="1">
          <mxGeometry relative="1" as="geometry">
            <mxPoint x="261" y="375" as="targetPoint" />
          </mxGeometry>
        </mxCell>
        <mxCell id="P8LJyIE7DeACisC1q10v-135" value="" style="pointerEvents=1;verticalLabelPosition=bottom;shadow=0;dashed=0;align=center;html=1;verticalAlign=top;shape=mxgraph.electrical.capacitors.capacitor_1;rotation=-180;" parent="1" vertex="1">
          <mxGeometry x="196" y="365" width="45" height="20" as="geometry" />
        </mxCell>
        <mxCell id="P8LJyIE7DeACisC1q10v-146" style="edgeStyle=orthogonalEdgeStyle;rounded=0;orthogonalLoop=1;jettySize=auto;html=1;entryX=1;entryY=0.5;entryDx=0;entryDy=0;entryPerimeter=0;endArrow=none;endFill=0;" parent="1" source="P8LJyIE7DeACisC1q10v-145" target="P8LJyIE7DeACisC1q10v-135" edge="1">
          <mxGeometry relative="1" as="geometry">
            <Array as="points">
              <mxPoint x="186" y="375" />
            </Array>
          </mxGeometry>
        </mxCell>
        <mxCell id="P8LJyIE7DeACisC1q10v-145" value="" style="pointerEvents=1;verticalLabelPosition=bottom;shadow=0;dashed=0;align=center;html=1;verticalAlign=top;shape=mxgraph.electrical.signal_sources.signal_ground;" parent="1" vertex="1">
          <mxGeometry x="181" y="381.25" width="10" height="10" as="geometry" />
        </mxCell>
        <mxCell id="P8LJyIE7DeACisC1q10v-147" value="" style="endArrow=none;html=1;rounded=0;endFill=0;" parent="1" edge="1">
          <mxGeometry width="50" height="50" relative="1" as="geometry">
            <mxPoint x="108.5" y="410" as="sourcePoint" />
            <mxPoint x="183.5" y="410" as="targetPoint" />
          </mxGeometry>
        </mxCell>
        <mxCell id="P8LJyIE7DeACisC1q10v-148" value="" style="ellipse;whiteSpace=wrap;html=1;aspect=fixed;" parent="1" vertex="1">
          <mxGeometry x="88.5" y="400" width="20" height="20" as="geometry" />
        </mxCell>
        <mxCell id="P8LJyIE7DeACisC1q10v-149" value="" style="ellipse;whiteSpace=wrap;html=1;aspect=fixed;" parent="1" vertex="1">
          <mxGeometry x="93.5" y="405" width="10" height="10" as="geometry" />
        </mxCell>
        <mxCell id="P8LJyIE7DeACisC1q10v-151" value="" style="pointerEvents=1;verticalLabelPosition=bottom;shadow=0;dashed=0;align=center;html=1;verticalAlign=top;shape=mxgraph.electrical.resistors.resistor_2;rotation=90;" parent="1" vertex="1">
          <mxGeometry x="151.25" y="430" width="32.25" height="6.25" as="geometry" />
        </mxCell>
        <mxCell id="P8LJyIE7DeACisC1q10v-153" style="edgeStyle=orthogonalEdgeStyle;rounded=0;orthogonalLoop=1;jettySize=auto;html=1;" parent="1" source="P8LJyIE7DeACisC1q10v-154" edge="1">
          <mxGeometry relative="1" as="geometry">
            <mxPoint x="283.5" y="410" as="targetPoint" />
          </mxGeometry>
        </mxCell>
        <mxCell id="P8LJyIE7DeACisC1q10v-154" value="" style="pointerEvents=1;verticalLabelPosition=bottom;shadow=0;dashed=0;align=center;html=1;verticalAlign=top;shape=mxgraph.electrical.capacitors.capacitor_1;rotation=-180;" parent="1" vertex="1">
          <mxGeometry x="183.5" y="400" width="45" height="20" as="geometry" />
        </mxCell>
        <mxCell id="P8LJyIE7DeACisC1q10v-167" style="edgeStyle=orthogonalEdgeStyle;rounded=0;orthogonalLoop=1;jettySize=auto;html=1;exitX=1;exitY=0.5;exitDx=0;exitDy=0;exitPerimeter=0;endArrow=none;endFill=0;" parent="1" edge="1">
          <mxGeometry relative="1" as="geometry">
            <mxPoint x="167.1369767441861" y="420" as="targetPoint" />
            <mxPoint x="167.23000000000002" y="409" as="sourcePoint" />
          </mxGeometry>
        </mxCell>
        <mxCell id="P8LJyIE7DeACisC1q10v-169" value="" style="endArrow=none;html=1;rounded=0;entryX=1;entryY=0.5;entryDx=0;entryDy=0;entryPerimeter=0;edgeStyle=orthogonalEdgeStyle;" parent="1" target="P8LJyIE7DeACisC1q10v-151" edge="1">
          <mxGeometry width="50" height="50" relative="1" as="geometry">
            <mxPoint x="114.5" y="460" as="sourcePoint" />
            <mxPoint x="168.5" y="467" as="targetPoint" />
            <Array as="points">
              <mxPoint x="167.5" y="460" />
              <mxPoint x="167.5" y="449" />
            </Array>
          </mxGeometry>
        </mxCell>
        <mxCell id="P8LJyIE7DeACisC1q10v-170" style="edgeStyle=orthogonalEdgeStyle;rounded=0;orthogonalLoop=1;jettySize=auto;html=1;exitX=1;exitY=0.5;exitDx=0;exitDy=0;exitPerimeter=0;endArrow=none;endFill=0;" parent="1" edge="1">
          <mxGeometry relative="1" as="geometry">
            <mxPoint x="261.8869767441861" y="411" as="targetPoint" />
            <mxPoint x="261.98" y="400" as="sourcePoint" />
          </mxGeometry>
        </mxCell>
        <mxCell id="P8LJyIE7DeACisC1q10v-171" value="" style="pointerEvents=1;verticalLabelPosition=bottom;shadow=0;dashed=0;align=center;html=1;verticalAlign=top;shape=mxgraph.electrical.capacitors.capacitor_1;rotation=-180;" parent="1" vertex="1">
          <mxGeometry x="409" y="349.05999999999995" width="45" height="20" as="geometry" />
        </mxCell>
        <mxCell id="P8LJyIE7DeACisC1q10v-173" style="edgeStyle=orthogonalEdgeStyle;rounded=0;orthogonalLoop=1;jettySize=auto;html=1;entryX=0;entryY=0.5;entryDx=0;entryDy=0;exitX=0;exitY=0.5;exitDx=0;exitDy=0;exitPerimeter=0;" parent="1" source="P8LJyIE7DeACisC1q10v-177" target="P8LJyIE7DeACisC1q10v-175" edge="1">
          <mxGeometry relative="1" as="geometry">
            <mxPoint x="424" y="388.92999999999984" as="sourcePoint" />
          </mxGeometry>
        </mxCell>
        <mxCell id="P8LJyIE7DeACisC1q10v-174" style="edgeStyle=orthogonalEdgeStyle;rounded=0;orthogonalLoop=1;jettySize=auto;html=1;entryX=1;entryY=0.5;entryDx=0;entryDy=0;entryPerimeter=0;exitX=1;exitY=0.25;exitDx=0;exitDy=0;endArrow=none;endFill=0;" parent="1" target="P8LJyIE7DeACisC1q10v-177" edge="1">
          <mxGeometry relative="1" as="geometry">
            <mxPoint x="421" y="384.05999999999995" as="targetPoint" />
            <mxPoint x="376" y="389.05999999999995" as="sourcePoint" />
          </mxGeometry>
        </mxCell>
        <mxCell id="P8LJyIE7DeACisC1q10v-175" value="" style="ellipse;whiteSpace=wrap;html=1;aspect=fixed;" parent="1" vertex="1">
          <mxGeometry x="486" y="379.05999999999995" width="20" height="20" as="geometry" />
        </mxCell>
        <mxCell id="P8LJyIE7DeACisC1q10v-176" value="" style="ellipse;whiteSpace=wrap;html=1;aspect=fixed;" parent="1" vertex="1">
          <mxGeometry x="491" y="384.05999999999995" width="10" height="10" as="geometry" />
        </mxCell>
        <mxCell id="P8LJyIE7DeACisC1q10v-177" value="" style="pointerEvents=1;verticalLabelPosition=bottom;shadow=0;dashed=0;align=center;html=1;verticalAlign=top;shape=mxgraph.electrical.capacitors.capacitor_1;rotation=-180;" parent="1" vertex="1">
          <mxGeometry x="409" y="379.05999999999995" width="45" height="20" as="geometry" />
        </mxCell>
        <mxCell id="P8LJyIE7DeACisC1q10v-178" value="Block X" style="rounded=0;whiteSpace=wrap;html=1;" parent="1" vertex="1">
          <mxGeometry x="286" y="318.1199999999999" width="90" height="111.88" as="geometry" />
        </mxCell>
        <mxCell id="P8LJyIE7DeACisC1q10v-179" value="IN" style="text;html=1;strokeColor=none;fillColor=none;align=center;verticalAlign=middle;whiteSpace=wrap;rounded=0;" parent="1" vertex="1">
          <mxGeometry x="50" y="315" width="60" height="30" as="geometry" />
        </mxCell>
        <mxCell id="P8LJyIE7DeACisC1q10v-180" value="INb" style="text;html=1;strokeColor=none;fillColor=none;align=center;verticalAlign=middle;whiteSpace=wrap;rounded=0;" parent="1" vertex="1">
          <mxGeometry x="51" y="379.05999999999995" width="60" height="30" as="geometry" />
        </mxCell>
        <mxCell id="P8LJyIE7DeACisC1q10v-182" value="OUT" style="text;html=1;strokeColor=none;fillColor=none;align=center;verticalAlign=middle;whiteSpace=wrap;rounded=0;" parent="1" vertex="1">
          <mxGeometry x="502" y="344.05999999999995" width="60" height="30" as="geometry" />
        </mxCell>
        <mxCell id="P8LJyIE7DeACisC1q10v-183" value="OUTb" style="text;html=1;strokeColor=none;fillColor=none;align=center;verticalAlign=middle;whiteSpace=wrap;rounded=0;" parent="1" vertex="1">
          <mxGeometry x="502" y="375" width="60" height="30" as="geometry" />
        </mxCell>
        <mxCell id="P8LJyIE7DeACisC1q10v-184" value="IN2" style="text;html=1;strokeColor=none;fillColor=none;align=center;verticalAlign=middle;whiteSpace=wrap;rounded=0;" parent="1" vertex="1">
          <mxGeometry x="71" y="270" width="60" height="30" as="geometry" />
        </mxCell>
        <mxCell id="P8LJyIE7DeACisC1q10v-185" value="IN2b" style="text;html=1;strokeColor=none;fillColor=none;align=center;verticalAlign=middle;whiteSpace=wrap;rounded=0;" parent="1" vertex="1">
          <mxGeometry x="71" y="436.25" width="60" height="30" as="geometry" />
        </mxCell>
        <mxCell id="P8LJyIE7DeACisC1q10v-187" value="VDD" style="text;html=1;strokeColor=none;fillColor=none;align=center;verticalAlign=middle;whiteSpace=wrap;rounded=0;" parent="1" vertex="1">
          <mxGeometry x="-189" y="168" width="60" height="30" as="geometry" />
        </mxCell>
        <mxCell id="P8LJyIE7DeACisC1q10v-188" value="&lt;font color=&quot;#ff8000&quot;&gt;0Ω&lt;/font&gt;" style="text;html=1;strokeColor=none;fillColor=none;align=center;verticalAlign=middle;whiteSpace=wrap;rounded=0;" parent="1" vertex="1">
          <mxGeometry x="121" y="298" width="60" height="30" as="geometry" />
        </mxCell>
        <mxCell id="P8LJyIE7DeACisC1q10v-190" value="&lt;font color=&quot;#ff8000&quot;&gt;0Ω&lt;/font&gt;" style="text;html=1;strokeColor=none;fillColor=none;align=center;verticalAlign=middle;whiteSpace=wrap;rounded=0;" parent="1" vertex="1">
          <mxGeometry x="121" y="420" width="60" height="30" as="geometry" />
        </mxCell>
        <mxCell id="P8LJyIE7DeACisC1q10v-191" value="&lt;font color=&quot;#ff8000&quot;&gt;10uF&lt;/font&gt;" style="text;html=1;strokeColor=none;fillColor=none;align=center;verticalAlign=middle;whiteSpace=wrap;rounded=0;" parent="1" vertex="1">
          <mxGeometry x="186" y="305" width="40" height="30" as="geometry" />
        </mxCell>
        <mxCell id="P8LJyIE7DeACisC1q10v-192" value="&lt;font color=&quot;#ff8000&quot;&gt;10uF&lt;/font&gt;" style="text;html=1;strokeColor=none;fillColor=none;align=center;verticalAlign=middle;whiteSpace=wrap;rounded=0;" parent="1" vertex="1">
          <mxGeometry x="188.5" y="415" width="40" height="30" as="geometry" />
        </mxCell>
        <mxCell id="P8LJyIE7DeACisC1q10v-193" value="&lt;font color=&quot;#ff8000&quot;&gt;49.9Ω&lt;/font&gt;" style="text;html=1;strokeColor=none;fillColor=none;align=center;verticalAlign=middle;whiteSpace=wrap;rounded=0;" parent="1" vertex="1">
          <mxGeometry x="221" y="339.05999999999995" width="40" height="30" as="geometry" />
        </mxCell>
        <mxCell id="P8LJyIE7DeACisC1q10v-194" value="&lt;font color=&quot;#ff8000&quot;&gt;49.9Ω&lt;/font&gt;" style="text;html=1;strokeColor=none;fillColor=none;align=center;verticalAlign=middle;whiteSpace=wrap;rounded=0;" parent="1" vertex="1">
          <mxGeometry x="221" y="375" width="40" height="30" as="geometry" />
        </mxCell>
        <mxCell id="P8LJyIE7DeACisC1q10v-195" value="&lt;font color=&quot;#ff8000&quot;&gt;0.1uF&lt;/font&gt;" style="text;html=1;strokeColor=none;fillColor=none;align=center;verticalAlign=middle;whiteSpace=wrap;rounded=0;" parent="1" vertex="1">
          <mxGeometry x="183.5" y="345" width="40" height="30" as="geometry" />
        </mxCell>
        <mxCell id="P8LJyIE7DeACisC1q10v-196" value="&lt;font color=&quot;#ff8000&quot;&gt;0.1uF&lt;/font&gt;" style="text;html=1;strokeColor=none;fillColor=none;align=center;verticalAlign=middle;whiteSpace=wrap;rounded=0;" parent="1" vertex="1">
          <mxGeometry x="409" y="325" width="40" height="30" as="geometry" />
        </mxCell>
        <mxCell id="P8LJyIE7DeACisC1q10v-197" value="&lt;font color=&quot;#ff8000&quot;&gt;0.1uF&lt;/font&gt;" style="text;html=1;strokeColor=none;fillColor=none;align=center;verticalAlign=middle;whiteSpace=wrap;rounded=0;" parent="1" vertex="1">
          <mxGeometry x="409" y="391.25" width="40" height="30" as="geometry" />
        </mxCell>
        <mxCell id="P8LJyIE7DeACisC1q10v-198" value="&lt;font color=&quot;#ff8000&quot;&gt;22uF&lt;/font&gt;" style="text;html=1;strokeColor=none;fillColor=none;align=center;verticalAlign=middle;whiteSpace=wrap;rounded=0;" parent="1" vertex="1">
          <mxGeometry x="-99" y="236" width="40" height="22" as="geometry" />
        </mxCell>
        <mxCell id="P8LJyIE7DeACisC1q10v-199" value="&lt;font color=&quot;#ff8000&quot;&gt;10uF&lt;/font&gt;" style="text;html=1;strokeColor=none;fillColor=none;align=center;verticalAlign=middle;whiteSpace=wrap;rounded=0;" parent="1" vertex="1">
          <mxGeometry x="-51.5" y="241" width="32.5" height="12" as="geometry" />
        </mxCell>
        <mxCell id="P8LJyIE7DeACisC1q10v-200" value="&lt;font color=&quot;#ff8000&quot;&gt;0.1uF&lt;/font&gt;" style="text;html=1;strokeColor=none;fillColor=none;align=center;verticalAlign=middle;whiteSpace=wrap;rounded=0;" parent="1" vertex="1">
          <mxGeometry x="-11.5" y="236" width="42.5" height="22" as="geometry" />
        </mxCell>
        <mxCell id="P8LJyIE7DeACisC1q10v-210" value="&lt;font color=&quot;#ff8000&quot;&gt;4.7uH&lt;/font&gt;" style="text;html=1;strokeColor=none;fillColor=none;align=center;verticalAlign=middle;whiteSpace=wrap;rounded=0;" parent="1" vertex="1">
          <mxGeometry x="-134" y="206" width="40" height="22" as="geometry" />
        </mxCell>
        <mxCell id="UUOn9ahhuayOJVYRpyey-1" value="&lt;font color=&quot;#cc0000&quot;&gt;Power Filters&lt;/font&gt;" style="text;html=1;strokeColor=none;fillColor=none;align=center;verticalAlign=middle;whiteSpace=wrap;rounded=0;fontStyle=1" parent="1" vertex="1">
          <mxGeometry x="-119" y="176" width="60" height="30" as="geometry" />
        </mxCell>
        <mxCell id="UUOn9ahhuayOJVYRpyey-2" value="&lt;font color=&quot;#cc0000&quot;&gt;Supply Capacitors&lt;/font&gt;" style="text;html=1;strokeColor=none;fillColor=none;align=center;verticalAlign=middle;whiteSpace=wrap;rounded=0;fontStyle=1" parent="1" vertex="1">
          <mxGeometry x="-1.5" y="190" width="60" height="30" as="geometry" />
        </mxCell>
        <mxCell id="UUOn9ahhuayOJVYRpyey-3" value="&lt;font color=&quot;#cc0000&quot;&gt;AC Coupling Capacitors&lt;/font&gt;" style="text;html=1;strokeColor=none;fillColor=none;align=center;verticalAlign=middle;whiteSpace=wrap;rounded=0;fontStyle=1" parent="1" vertex="1">
          <mxGeometry x="392.25" y="295" width="78.5" height="30" as="geometry" />
        </mxCell>
        <mxCell id="UUOn9ahhuayOJVYRpyey-4" value="&lt;font color=&quot;#cc0000&quot;&gt;Termination&lt;/font&gt;" style="text;html=1;strokeColor=none;fillColor=none;align=center;verticalAlign=middle;whiteSpace=wrap;rounded=0;fontStyle=1" parent="1" vertex="1">
          <mxGeometry x="102.5" y="359.06" width="78.5" height="30" as="geometry" />
        </mxCell>
        <mxCell id="UUOn9ahhuayOJVYRpyey-5" value="&lt;font color=&quot;#cc0000&quot;&gt;BOM Options&lt;/font&gt;" style="text;html=1;strokeColor=none;fillColor=none;align=center;verticalAlign=middle;whiteSpace=wrap;rounded=0;fontStyle=1" parent="1" vertex="1">
          <mxGeometry x="142.5" y="253" width="78.5" height="30" as="geometry" />
        </mxCell>
      </root>
    </mxGraphModel>
  </diagram>
  <diagram id="85Z-BbRbWzz1AwNCN2ZA" name="Page-2">
    <mxGraphModel dx="676" dy="372" grid="1" gridSize="10" guides="1" tooltips="1" connect="1" arrows="1" fold="1" page="1" pageScale="1" pageWidth="827" pageHeight="1169" math="0" shadow="0">
      <root>
        <mxCell id="0" />
        <mxCell id="1" parent="0" />
        <mxCell id="7YpBfFUCWmFcHRnwsc84-5" style="edgeStyle=orthogonalEdgeStyle;rounded=0;orthogonalLoop=1;jettySize=auto;html=1;entryX=0;entryY=0.5;entryDx=0;entryDy=0;entryPerimeter=0;endArrow=none;endFill=0;" parent="1" source="7YpBfFUCWmFcHRnwsc84-1" target="7YpBfFUCWmFcHRnwsc84-4" edge="1">
          <mxGeometry relative="1" as="geometry" />
        </mxCell>
        <mxCell id="7YpBfFUCWmFcHRnwsc84-1" value="" style="shape=cylinder3;whiteSpace=wrap;html=1;boundedLbl=1;backgroundOutline=1;size=6.9109649658203125;rotation=-90;" parent="1" vertex="1">
          <mxGeometry x="342.5" y="67.5" width="22.5" height="167.5" as="geometry" />
        </mxCell>
        <mxCell id="7YpBfFUCWmFcHRnwsc84-4" value="" style="pointerEvents=1;verticalLabelPosition=bottom;shadow=0;dashed=0;align=center;html=1;verticalAlign=top;shape=mxgraph.electrical.resistors.resistor_2;rotation=90;" parent="1" vertex="1">
          <mxGeometry x="450" y="190" width="50" height="15" as="geometry" />
        </mxCell>
        <mxCell id="7YpBfFUCWmFcHRnwsc84-6" value="" style="pointerEvents=1;verticalLabelPosition=bottom;shadow=0;dashed=0;align=center;html=1;verticalAlign=top;shape=mxgraph.electrical.signal_sources.protective_earth;" parent="1" vertex="1">
          <mxGeometry x="462.5" y="220" width="25" height="20" as="geometry" />
        </mxCell>
        <mxCell id="7YpBfFUCWmFcHRnwsc84-9" value="RX" style="text;html=1;strokeColor=none;fillColor=none;align=center;verticalAlign=middle;whiteSpace=wrap;rounded=0;" parent="1" vertex="1">
          <mxGeometry x="440" y="127" width="60" height="30" as="geometry" />
        </mxCell>
        <mxCell id="7YpBfFUCWmFcHRnwsc84-10" value="Z&lt;sub&gt;0&lt;/sub&gt;" style="text;html=1;strokeColor=none;fillColor=none;align=center;verticalAlign=middle;whiteSpace=wrap;rounded=0;" parent="1" vertex="1">
          <mxGeometry x="323.75" y="110" width="60" height="30" as="geometry" />
        </mxCell>
        <mxCell id="7YpBfFUCWmFcHRnwsc84-13" style="edgeStyle=orthogonalEdgeStyle;rounded=0;orthogonalLoop=1;jettySize=auto;html=1;entryX=0.5;entryY=0;entryDx=0;entryDy=0;entryPerimeter=0;endArrow=none;endFill=0;" parent="1" source="7YpBfFUCWmFcHRnwsc84-14" edge="1">
          <mxGeometry relative="1" as="geometry">
            <mxPoint x="280" y="151.25" as="targetPoint" />
          </mxGeometry>
        </mxCell>
        <mxCell id="7YpBfFUCWmFcHRnwsc84-14" value="TX" style="triangle;whiteSpace=wrap;html=1;" parent="1" vertex="1">
          <mxGeometry x="210" y="127" width="40" height="49" as="geometry" />
        </mxCell>
        <mxCell id="7YpBfFUCWmFcHRnwsc84-15" value="" style="curved=1;endArrow=classic;html=1;rounded=0;fontColor=#CC6600;strokeColor=#CC6600;" parent="1" edge="1">
          <mxGeometry width="50" height="50" relative="1" as="geometry">
            <mxPoint x="280" y="90" as="sourcePoint" />
            <mxPoint x="250" y="130" as="targetPoint" />
            <Array as="points">
              <mxPoint x="280" y="100" />
              <mxPoint x="280" y="120" />
            </Array>
          </mxGeometry>
        </mxCell>
        <mxCell id="7YpBfFUCWmFcHRnwsc84-16" value="50Ω" style="text;html=1;strokeColor=none;fillColor=none;align=center;verticalAlign=middle;whiteSpace=wrap;rounded=0;fontColor=#CC6600;" parent="1" vertex="1">
          <mxGeometry x="250" y="60" width="60" height="30" as="geometry" />
        </mxCell>
        <mxCell id="7YpBfFUCWmFcHRnwsc84-18" value="1MΩ" style="text;html=1;strokeColor=none;fillColor=none;align=center;verticalAlign=middle;whiteSpace=wrap;rounded=0;" parent="1" vertex="1">
          <mxGeometry x="470" y="176" width="60" height="30" as="geometry" />
        </mxCell>
        <mxCell id="7YpBfFUCWmFcHRnwsc84-19" value="1MΩ" style="text;html=1;strokeColor=none;fillColor=none;align=center;verticalAlign=middle;whiteSpace=wrap;rounded=0;fontColor=#CC6600;" parent="1" vertex="1">
          <mxGeometry x="470" y="176" width="60" height="30" as="geometry" />
        </mxCell>
        <mxCell id="7YpBfFUCWmFcHRnwsc84-20" value="50Ω" style="text;html=1;strokeColor=none;fillColor=none;align=center;verticalAlign=middle;whiteSpace=wrap;rounded=0;fontColor=#CC6600;" parent="1" vertex="1">
          <mxGeometry x="365" y="110" width="60" height="30" as="geometry" />
        </mxCell>
        <mxCell id="YcmZQEDL13TiicyVGa5r-1" value="" style="pointerEvents=1;verticalLabelPosition=bottom;shadow=0;dashed=0;align=center;html=1;verticalAlign=top;shape=mxgraph.electrical.waveforms.pulse_1;strokeWidth=2;strokeColor=#CC0000;" parent="1" vertex="1">
          <mxGeometry x="170" y="90" width="80" height="30" as="geometry" />
        </mxCell>
        <mxCell id="YcmZQEDL13TiicyVGa5r-5" value="" style="endArrow=none;html=1;rounded=0;entryX=0.008;entryY=0.496;entryDx=0;entryDy=0;entryPerimeter=0;edgeStyle=orthogonalEdgeStyle;strokeWidth=2;strokeColor=#CC0000;" parent="1" edge="1">
          <mxGeometry width="50" height="50" relative="1" as="geometry">
            <mxPoint x="450" y="120" as="sourcePoint" />
            <mxPoint x="470.08" y="88.58000000000001" as="targetPoint" />
            <Array as="points">
              <mxPoint x="470" y="120" />
              <mxPoint x="470" y="100" />
              <mxPoint x="470" y="100" />
            </Array>
          </mxGeometry>
        </mxCell>
        <mxCell id="YcmZQEDL13TiicyVGa5r-8" value="" style="pointerEvents=1;verticalLabelPosition=bottom;shadow=0;dashed=0;align=center;html=1;verticalAlign=top;shape=mxgraph.electrical.waveforms.sine_wave;" parent="1" vertex="1">
          <mxGeometry x="240" y="40" height="42.5" as="geometry" />
        </mxCell>
        <mxCell id="YcmZQEDL13TiicyVGa5r-12" value="" style="curved=1;endArrow=none;html=1;rounded=0;endFill=0;strokeWidth=2;strokeColor=#CC0000;" parent="1" edge="1">
          <mxGeometry width="50" height="50" relative="1" as="geometry">
            <mxPoint x="510" y="120" as="sourcePoint" />
            <mxPoint x="520" y="120" as="targetPoint" />
            <Array as="points">
              <mxPoint x="510" y="150" />
              <mxPoint x="520" y="90" />
            </Array>
          </mxGeometry>
        </mxCell>
        <mxCell id="YcmZQEDL13TiicyVGa5r-13" value="" style="endArrow=none;html=1;rounded=0;edgeStyle=orthogonalEdgeStyle;exitX=1.023;exitY=0.527;exitDx=0;exitDy=0;exitPerimeter=0;strokeWidth=2;strokeColor=#CC0000;" parent="1" edge="1">
          <mxGeometry width="50" height="50" relative="1" as="geometry">
            <mxPoint x="490" y="91" as="sourcePoint" />
            <mxPoint x="510" y="120" as="targetPoint" />
            <Array as="points">
              <mxPoint x="510" y="91" />
            </Array>
          </mxGeometry>
        </mxCell>
        <mxCell id="YcmZQEDL13TiicyVGa5r-14" value="" style="curved=1;endArrow=none;html=1;rounded=0;endFill=0;strokeWidth=2;strokeColor=#CC0000;" parent="1" edge="1">
          <mxGeometry width="50" height="50" relative="1" as="geometry">
            <mxPoint x="520" y="120" as="sourcePoint" />
            <mxPoint x="530" y="120" as="targetPoint" />
            <Array as="points">
              <mxPoint x="520" y="140" />
              <mxPoint x="530" y="100" />
            </Array>
          </mxGeometry>
        </mxCell>
        <mxCell id="YcmZQEDL13TiicyVGa5r-17" value="" style="curved=1;endArrow=none;html=1;rounded=0;endFill=0;strokeWidth=2;strokeColor=#CC0000;" parent="1" edge="1">
          <mxGeometry width="50" height="50" relative="1" as="geometry">
            <mxPoint x="470" y="90" as="sourcePoint" />
            <mxPoint x="480" y="90" as="targetPoint" />
            <Array as="points">
              <mxPoint x="470" y="60" />
              <mxPoint x="480" y="120" />
            </Array>
          </mxGeometry>
        </mxCell>
        <mxCell id="YcmZQEDL13TiicyVGa5r-18" value="" style="curved=1;endArrow=none;html=1;rounded=0;endFill=0;strokeWidth=2;strokeColor=#CC0000;" parent="1" edge="1">
          <mxGeometry width="50" height="50" relative="1" as="geometry">
            <mxPoint x="480" y="90" as="sourcePoint" />
            <mxPoint x="490" y="90" as="targetPoint" />
            <Array as="points">
              <mxPoint x="480" y="80" />
              <mxPoint x="490" y="110" />
            </Array>
          </mxGeometry>
        </mxCell>
        <mxCell id="YcmZQEDL13TiicyVGa5r-19" value="" style="endArrow=none;html=1;rounded=0;edgeStyle=orthogonalEdgeStyle;exitX=1.023;exitY=0.527;exitDx=0;exitDy=0;exitPerimeter=0;strokeWidth=2;strokeColor=#CC0000;" parent="1" edge="1">
          <mxGeometry width="50" height="50" relative="1" as="geometry">
            <mxPoint x="530" y="120" as="sourcePoint" />
            <mxPoint x="550" y="120" as="targetPoint" />
            <Array as="points">
              <mxPoint x="550" y="120" />
            </Array>
          </mxGeometry>
        </mxCell>
      </root>
    </mxGraphModel>
  </diagram>
  <diagram id="U3OCqZiyGZOLpeGJXZUi" name="Page-3">
    <mxGraphModel dx="676" dy="372" grid="1" gridSize="10" guides="1" tooltips="1" connect="1" arrows="1" fold="1" page="1" pageScale="1" pageWidth="827" pageHeight="1169" math="0" shadow="0">
      <root>
        <mxCell id="0" />
        <mxCell id="1" parent="0" />
        <mxCell id="BqOmxw2MYneiD4HMFJ6V-2" value="" style="shape=cylinder3;whiteSpace=wrap;html=1;boundedLbl=1;backgroundOutline=1;size=6.9109649658203125;rotation=-90;fillColor=#f8cecc;strokeColor=#b85450;" parent="1" vertex="1">
          <mxGeometry x="285" y="125" width="22.5" height="52.5" as="geometry" />
        </mxCell>
        <mxCell id="BqOmxw2MYneiD4HMFJ6V-6" value="Z&lt;sub&gt;0&lt;/sub&gt;" style="text;html=1;strokeColor=none;fillColor=none;align=center;verticalAlign=middle;whiteSpace=wrap;rounded=0;" parent="1" vertex="1">
          <mxGeometry x="266.25" y="113.75" width="60" height="30" as="geometry" />
        </mxCell>
        <mxCell id="BqOmxw2MYneiD4HMFJ6V-10" value="" style="pointerEvents=1;verticalLabelPosition=bottom;shadow=0;dashed=0;align=center;html=1;verticalAlign=top;shape=mxgraph.electrical.resistors.resistor_2;rotation=-180;" parent="1" vertex="1">
          <mxGeometry x="220" y="143.75" width="50" height="15" as="geometry" />
        </mxCell>
        <mxCell id="BqOmxw2MYneiD4HMFJ6V-14" value="Z&lt;span style=&quot;font-size: 10px;&quot;&gt;D&lt;/span&gt;" style="text;html=1;strokeColor=none;fillColor=none;align=center;verticalAlign=middle;whiteSpace=wrap;rounded=0;" parent="1" vertex="1">
          <mxGeometry x="170" y="110" width="60" height="30" as="geometry" />
        </mxCell>
        <mxCell id="BqOmxw2MYneiD4HMFJ6V-15" value="R&lt;sub&gt;S&lt;/sub&gt;" style="text;html=1;strokeColor=none;fillColor=none;align=center;verticalAlign=middle;whiteSpace=wrap;rounded=0;" parent="1" vertex="1">
          <mxGeometry x="215" y="113.75" width="60" height="30" as="geometry" />
        </mxCell>
        <mxCell id="BqOmxw2MYneiD4HMFJ6V-17" value="Z&lt;sub&gt;D&lt;/sub&gt; + R&lt;sub&gt;S&lt;/sub&gt; = Z&lt;sub&gt;0&lt;/sub&gt;" style="text;html=1;strokeColor=#d6b656;fillColor=#fff2cc;align=center;verticalAlign=middle;whiteSpace=wrap;rounded=0;" parent="1" vertex="1">
          <mxGeometry x="230" y="175.75" width="80" height="24" as="geometry" />
        </mxCell>
        <mxCell id="BqOmxw2MYneiD4HMFJ6V-19" value="" style="endArrow=none;html=1;rounded=0;exitX=0.5;exitY=1;exitDx=0;exitDy=0;exitPerimeter=0;" parent="1" source="BqOmxw2MYneiD4HMFJ6V-2" edge="1">
          <mxGeometry width="50" height="50" relative="1" as="geometry">
            <mxPoint x="326.25" y="151.2" as="sourcePoint" />
            <mxPoint x="346.25" y="151.2" as="targetPoint" />
          </mxGeometry>
        </mxCell>
        <mxCell id="BqOmxw2MYneiD4HMFJ6V-20" value="" style="triangle;whiteSpace=wrap;html=1;fillColor=#f8cecc;strokeColor=#b85450;" parent="1" vertex="1">
          <mxGeometry x="180" y="126.75" width="40" height="49" as="geometry" />
        </mxCell>
      </root>
    </mxGraphModel>
  </diagram>
  <diagram id="WZnJBUqoE6M8vT86b7zx" name="Page-4">
    <mxGraphModel dx="676" dy="372" grid="1" gridSize="10" guides="1" tooltips="1" connect="1" arrows="1" fold="1" page="1" pageScale="1" pageWidth="827" pageHeight="1169" math="0" shadow="0">
      <root>
        <mxCell id="0" />
        <mxCell id="1" parent="0" />
        <mxCell id="vMJcFu49MtDfxL5njszL-1" value="" style="shape=cylinder3;whiteSpace=wrap;html=1;boundedLbl=1;backgroundOutline=1;size=6.9109649658203125;rotation=-90;fillColor=#f8cecc;strokeColor=#b85450;" parent="1" vertex="1">
          <mxGeometry x="285" y="125" width="22.5" height="52.5" as="geometry" />
        </mxCell>
        <mxCell id="vMJcFu49MtDfxL5njszL-2" value="Z&lt;sub&gt;0&lt;/sub&gt;" style="text;html=1;strokeColor=none;fillColor=none;align=center;verticalAlign=middle;whiteSpace=wrap;rounded=0;" parent="1" vertex="1">
          <mxGeometry x="266.25" y="113.75" width="60" height="30" as="geometry" />
        </mxCell>
        <mxCell id="vMJcFu49MtDfxL5njszL-3" value="R&lt;span style=&quot;font-size: 10px;&quot;&gt;P&lt;/span&gt;" style="text;html=1;strokeColor=none;fillColor=none;align=center;verticalAlign=middle;whiteSpace=wrap;rounded=0;" parent="1" vertex="1">
          <mxGeometry x="340" y="177.5" width="35" height="26.25" as="geometry" />
        </mxCell>
        <mxCell id="vMJcFu49MtDfxL5njszL-4" value="Z&lt;sub&gt;0&lt;/sub&gt; = R&lt;sub&gt;P&lt;/sub&gt;" style="text;html=1;strokeColor=#d6b656;fillColor=#fff2cc;align=center;verticalAlign=middle;whiteSpace=wrap;rounded=0;" parent="1" vertex="1">
          <mxGeometry x="260" y="179.5" width="60" height="24.25" as="geometry" />
        </mxCell>
        <mxCell id="vMJcFu49MtDfxL5njszL-5" value="" style="endArrow=none;html=1;rounded=0;exitX=0.5;exitY=1;exitDx=0;exitDy=0;exitPerimeter=0;entryX=0;entryY=0.5;entryDx=0;entryDy=0;" parent="1" source="vMJcFu49MtDfxL5njszL-1" target="vMJcFu49MtDfxL5njszL-6" edge="1">
          <mxGeometry width="50" height="50" relative="1" as="geometry">
            <mxPoint x="326.25" y="151.2" as="sourcePoint" />
            <mxPoint x="346.25" y="151.2" as="targetPoint" />
          </mxGeometry>
        </mxCell>
        <mxCell id="vMJcFu49MtDfxL5njszL-6" value="" style="triangle;whiteSpace=wrap;html=1;fillColor=#f8cecc;strokeColor=#b85450;" parent="1" vertex="1">
          <mxGeometry x="350" y="126.75" width="40" height="49" as="geometry" />
        </mxCell>
        <mxCell id="vMJcFu49MtDfxL5njszL-7" style="edgeStyle=orthogonalEdgeStyle;rounded=0;orthogonalLoop=1;jettySize=auto;html=1;exitX=1;exitY=0.5;exitDx=0;exitDy=0;exitPerimeter=0;endArrow=none;endFill=0;" parent="1" source="vMJcFu49MtDfxL5njszL-9" edge="1">
          <mxGeometry relative="1" as="geometry">
            <mxPoint x="335" y="150" as="targetPoint" />
          </mxGeometry>
        </mxCell>
        <mxCell id="vMJcFu49MtDfxL5njszL-8" style="edgeStyle=orthogonalEdgeStyle;rounded=0;orthogonalLoop=1;jettySize=auto;html=1;entryX=0.5;entryY=0;entryDx=0;entryDy=0;entryPerimeter=0;endArrow=none;endFill=0;" parent="1" source="vMJcFu49MtDfxL5njszL-9" target="vMJcFu49MtDfxL5njszL-10" edge="1">
          <mxGeometry relative="1" as="geometry" />
        </mxCell>
        <mxCell id="vMJcFu49MtDfxL5njszL-9" value="" style="pointerEvents=1;verticalLabelPosition=bottom;shadow=0;dashed=0;align=center;html=1;verticalAlign=top;shape=mxgraph.electrical.resistors.resistor_2;rotation=-90;" parent="1" vertex="1">
          <mxGeometry x="310" y="175.75" width="50" height="15" as="geometry" />
        </mxCell>
        <mxCell id="vMJcFu49MtDfxL5njszL-10" value="" style="pointerEvents=1;verticalLabelPosition=bottom;shadow=0;dashed=0;align=center;html=1;verticalAlign=top;shape=mxgraph.electrical.signal_sources.protective_earth;" parent="1" vertex="1">
          <mxGeometry x="322.5" y="220" width="25" height="20" as="geometry" />
        </mxCell>
      </root>
    </mxGraphModel>
  </diagram>
  <diagram id="k-_xKmJ1VMTPY8HOCj35" name="Page-5">
    <mxGraphModel dx="966" dy="531" grid="1" gridSize="10" guides="1" tooltips="1" connect="1" arrows="1" fold="1" page="1" pageScale="1" pageWidth="827" pageHeight="1169" math="0" shadow="0">
      <root>
        <mxCell id="0" />
        <mxCell id="1" parent="0" />
        <mxCell id="XTt31eT2k_cmZge7a-Ju-4" value="" style="curved=1;endArrow=none;html=1;rounded=0;endFill=0;strokeWidth=2;strokeColor=#CC0000;" edge="1" parent="1">
          <mxGeometry width="50" height="50" relative="1" as="geometry">
            <mxPoint x="420" y="200" as="sourcePoint" />
            <mxPoint x="430" y="200" as="targetPoint" />
            <Array as="points">
              <mxPoint x="420" y="230" />
              <mxPoint x="430" y="170" />
            </Array>
          </mxGeometry>
        </mxCell>
        <mxCell id="XTt31eT2k_cmZge7a-Ju-6" value="" style="curved=1;endArrow=none;html=1;rounded=0;endFill=0;strokeWidth=2;strokeColor=#CC0000;" edge="1" parent="1">
          <mxGeometry width="50" height="50" relative="1" as="geometry">
            <mxPoint x="430" y="200" as="sourcePoint" />
            <mxPoint x="440" y="200" as="targetPoint" />
            <Array as="points">
              <mxPoint x="430" y="220" />
              <mxPoint x="440" y="180" />
            </Array>
          </mxGeometry>
        </mxCell>
        <mxCell id="7RV0kOEFZEfuSwdYm8uq-3" value="" style="endArrow=none;html=1;rounded=0;strokeWidth=2;strokeColor=#CC0000;" edge="1" parent="1">
          <mxGeometry width="50" height="50" relative="1" as="geometry">
            <mxPoint x="120" y="200" as="sourcePoint" />
            <mxPoint x="210" y="200" as="targetPoint" />
            <Array as="points">
              <mxPoint x="140" y="200" />
              <mxPoint x="150" y="120" />
              <mxPoint x="180" y="120" />
              <mxPoint x="190" y="200" />
            </Array>
          </mxGeometry>
        </mxCell>
        <mxCell id="7RV0kOEFZEfuSwdYm8uq-4" value="" style="endArrow=none;html=1;rounded=0;strokeWidth=2;strokeColor=#CC0000;" edge="1" parent="1">
          <mxGeometry width="50" height="50" relative="1" as="geometry">
            <mxPoint x="200" y="200" as="sourcePoint" />
            <mxPoint x="290" y="200" as="targetPoint" />
            <Array as="points">
              <mxPoint x="220" y="200" />
              <mxPoint x="230" y="120" />
              <mxPoint x="260" y="120" />
              <mxPoint x="270" y="200" />
            </Array>
          </mxGeometry>
        </mxCell>
        <mxCell id="7RV0kOEFZEfuSwdYm8uq-9" value="" style="endArrow=none;html=1;rounded=0;strokeWidth=2;strokeColor=#CC0000;" edge="1" parent="1">
          <mxGeometry width="50" height="50" relative="1" as="geometry">
            <mxPoint x="400" y="120" as="sourcePoint" />
            <mxPoint x="420" y="200" as="targetPoint" />
            <Array as="points">
              <mxPoint x="410" y="120" />
              <mxPoint x="420" y="200" />
            </Array>
          </mxGeometry>
        </mxCell>
        <mxCell id="7RV0kOEFZEfuSwdYm8uq-10" value="" style="endArrow=none;html=1;rounded=0;strokeWidth=2;strokeColor=#CC0000;" edge="1" parent="1">
          <mxGeometry width="50" height="50" relative="1" as="geometry">
            <mxPoint x="360" y="200" as="sourcePoint" />
            <mxPoint x="380" y="120" as="targetPoint" />
            <Array as="points">
              <mxPoint x="370" y="200" />
            </Array>
          </mxGeometry>
        </mxCell>
        <mxCell id="7RV0kOEFZEfuSwdYm8uq-11" value="" style="curved=1;endArrow=none;html=1;rounded=0;endFill=0;strokeWidth=2;strokeColor=#CC0000;" edge="1" parent="1">
          <mxGeometry width="50" height="50" relative="1" as="geometry">
            <mxPoint x="380" y="120" as="sourcePoint" />
            <mxPoint x="390" y="120" as="targetPoint" />
            <Array as="points">
              <mxPoint x="380" y="90" />
              <mxPoint x="390" y="150" />
            </Array>
          </mxGeometry>
        </mxCell>
        <mxCell id="7RV0kOEFZEfuSwdYm8uq-12" value="" style="curved=1;endArrow=none;html=1;rounded=0;endFill=0;strokeWidth=2;strokeColor=#CC0000;" edge="1" parent="1">
          <mxGeometry width="50" height="50" relative="1" as="geometry">
            <mxPoint x="390" y="120" as="sourcePoint" />
            <mxPoint x="400" y="120" as="targetPoint" />
            <Array as="points">
              <mxPoint x="390" y="110" />
              <mxPoint x="400" y="140" />
            </Array>
          </mxGeometry>
        </mxCell>
        <mxCell id="7RV0kOEFZEfuSwdYm8uq-13" value="" style="curved=1;endArrow=none;html=1;rounded=0;endFill=0;strokeWidth=2;strokeColor=#CC0000;" edge="1" parent="1">
          <mxGeometry width="50" height="50" relative="1" as="geometry">
            <mxPoint x="500" y="200" as="sourcePoint" />
            <mxPoint x="510" y="200" as="targetPoint" />
            <Array as="points">
              <mxPoint x="500" y="230" />
              <mxPoint x="510" y="170" />
            </Array>
          </mxGeometry>
        </mxCell>
        <mxCell id="7RV0kOEFZEfuSwdYm8uq-14" value="" style="curved=1;endArrow=none;html=1;rounded=0;endFill=0;strokeWidth=2;strokeColor=#CC0000;" edge="1" parent="1">
          <mxGeometry width="50" height="50" relative="1" as="geometry">
            <mxPoint x="510" y="200" as="sourcePoint" />
            <mxPoint x="520" y="200" as="targetPoint" />
            <Array as="points">
              <mxPoint x="510" y="220" />
              <mxPoint x="520" y="180" />
            </Array>
          </mxGeometry>
        </mxCell>
        <mxCell id="7RV0kOEFZEfuSwdYm8uq-16" value="" style="endArrow=none;html=1;rounded=0;strokeWidth=2;strokeColor=#CC0000;" edge="1" parent="1">
          <mxGeometry width="50" height="50" relative="1" as="geometry">
            <mxPoint x="480" y="120" as="sourcePoint" />
            <mxPoint x="500" y="200" as="targetPoint" />
            <Array as="points">
              <mxPoint x="490" y="120" />
              <mxPoint x="500" y="200" />
            </Array>
          </mxGeometry>
        </mxCell>
        <mxCell id="7RV0kOEFZEfuSwdYm8uq-17" value="" style="endArrow=none;html=1;rounded=0;strokeWidth=2;strokeColor=#CC0000;" edge="1" parent="1">
          <mxGeometry width="50" height="50" relative="1" as="geometry">
            <mxPoint x="440" y="200" as="sourcePoint" />
            <mxPoint x="460" y="120" as="targetPoint" />
            <Array as="points">
              <mxPoint x="450" y="200" />
            </Array>
          </mxGeometry>
        </mxCell>
        <mxCell id="7RV0kOEFZEfuSwdYm8uq-18" value="" style="curved=1;endArrow=none;html=1;rounded=0;endFill=0;strokeWidth=2;strokeColor=#CC0000;" edge="1" parent="1">
          <mxGeometry width="50" height="50" relative="1" as="geometry">
            <mxPoint x="460" y="120" as="sourcePoint" />
            <mxPoint x="470" y="120" as="targetPoint" />
            <Array as="points">
              <mxPoint x="460" y="90" />
              <mxPoint x="470" y="150" />
            </Array>
          </mxGeometry>
        </mxCell>
        <mxCell id="7RV0kOEFZEfuSwdYm8uq-19" value="" style="curved=1;endArrow=none;html=1;rounded=0;endFill=0;strokeWidth=2;strokeColor=#CC0000;" edge="1" parent="1">
          <mxGeometry width="50" height="50" relative="1" as="geometry">
            <mxPoint x="470" y="120" as="sourcePoint" />
            <mxPoint x="480" y="120" as="targetPoint" />
            <Array as="points">
              <mxPoint x="470" y="110" />
              <mxPoint x="480" y="140" />
            </Array>
          </mxGeometry>
        </mxCell>
        <mxCell id="7RV0kOEFZEfuSwdYm8uq-20" value="" style="endArrow=none;html=1;rounded=0;" edge="1" parent="1">
          <mxGeometry width="50" height="50" relative="1" as="geometry">
            <mxPoint x="120" y="200" as="sourcePoint" />
            <mxPoint x="300" y="200" as="targetPoint" />
          </mxGeometry>
        </mxCell>
        <mxCell id="7RV0kOEFZEfuSwdYm8uq-21" value="t" style="text;html=1;strokeColor=none;fillColor=none;align=center;verticalAlign=middle;whiteSpace=wrap;rounded=0;fontStyle=1" vertex="1" parent="1">
          <mxGeometry x="290" y="180" width="30" height="30" as="geometry" />
        </mxCell>
        <mxCell id="7RV0kOEFZEfuSwdYm8uq-22" value="" style="endArrow=none;html=1;rounded=0;" edge="1" parent="1">
          <mxGeometry width="50" height="50" relative="1" as="geometry">
            <mxPoint x="120" y="200" as="sourcePoint" />
            <mxPoint x="120" y="50" as="targetPoint" />
          </mxGeometry>
        </mxCell>
        <mxCell id="7RV0kOEFZEfuSwdYm8uq-23" value="V" style="text;html=1;strokeColor=none;fillColor=none;align=center;verticalAlign=middle;whiteSpace=wrap;rounded=0;fontStyle=1" vertex="1" parent="1">
          <mxGeometry x="110" y="30" width="20" height="20" as="geometry" />
        </mxCell>
        <mxCell id="7RV0kOEFZEfuSwdYm8uq-24" value="" style="endArrow=none;html=1;rounded=0;strokeWidth=2;strokeColor=#CC0000;" edge="1" parent="1">
          <mxGeometry width="50" height="50" relative="1" as="geometry">
            <mxPoint x="580" y="200" as="sourcePoint" />
            <mxPoint x="620" y="120" as="targetPoint" />
            <Array as="points">
              <mxPoint x="590" y="200" />
              <mxPoint x="600" y="130" />
              <mxPoint x="610" y="130" />
            </Array>
          </mxGeometry>
        </mxCell>
        <mxCell id="7RV0kOEFZEfuSwdYm8uq-25" value="" style="endArrow=none;html=1;rounded=0;strokeWidth=2;strokeColor=#CC0000;" edge="1" parent="1">
          <mxGeometry width="50" height="50" relative="1" as="geometry">
            <mxPoint x="620" y="120" as="sourcePoint" />
            <mxPoint x="660" y="200" as="targetPoint" />
            <Array as="points">
              <mxPoint x="630" y="120" />
              <mxPoint x="640" y="190" />
              <mxPoint x="650" y="190" />
            </Array>
          </mxGeometry>
        </mxCell>
        <mxCell id="7RV0kOEFZEfuSwdYm8uq-26" value="" style="endArrow=none;html=1;rounded=0;strokeWidth=2;strokeColor=#CC0000;" edge="1" parent="1">
          <mxGeometry width="50" height="50" relative="1" as="geometry">
            <mxPoint x="660" y="200" as="sourcePoint" />
            <mxPoint x="700" y="120" as="targetPoint" />
            <Array as="points">
              <mxPoint x="670" y="200" />
              <mxPoint x="680" y="130" />
              <mxPoint x="690" y="130" />
            </Array>
          </mxGeometry>
        </mxCell>
        <mxCell id="7RV0kOEFZEfuSwdYm8uq-27" value="" style="endArrow=none;html=1;rounded=0;strokeWidth=2;strokeColor=#CC0000;" edge="1" parent="1">
          <mxGeometry width="50" height="50" relative="1" as="geometry">
            <mxPoint x="700" y="120" as="sourcePoint" />
            <mxPoint x="740" y="200" as="targetPoint" />
            <Array as="points">
              <mxPoint x="710" y="120" />
              <mxPoint x="720" y="190" />
              <mxPoint x="730" y="190" />
            </Array>
          </mxGeometry>
        </mxCell>
        <mxCell id="7RV0kOEFZEfuSwdYm8uq-28" value="" style="endArrow=none;html=1;rounded=0;" edge="1" parent="1">
          <mxGeometry width="50" height="50" relative="1" as="geometry">
            <mxPoint x="350" y="200" as="sourcePoint" />
            <mxPoint x="530" y="200" as="targetPoint" />
          </mxGeometry>
        </mxCell>
        <mxCell id="7RV0kOEFZEfuSwdYm8uq-29" value="t" style="text;html=1;strokeColor=none;fillColor=none;align=center;verticalAlign=middle;whiteSpace=wrap;rounded=0;fontStyle=1" vertex="1" parent="1">
          <mxGeometry x="520" y="180" width="30" height="30" as="geometry" />
        </mxCell>
        <mxCell id="7RV0kOEFZEfuSwdYm8uq-30" value="" style="endArrow=none;html=1;rounded=0;" edge="1" parent="1">
          <mxGeometry width="50" height="50" relative="1" as="geometry">
            <mxPoint x="350" y="200" as="sourcePoint" />
            <mxPoint x="350" y="50" as="targetPoint" />
          </mxGeometry>
        </mxCell>
        <mxCell id="7RV0kOEFZEfuSwdYm8uq-31" value="V" style="text;html=1;strokeColor=none;fillColor=none;align=center;verticalAlign=middle;whiteSpace=wrap;rounded=0;fontStyle=1" vertex="1" parent="1">
          <mxGeometry x="340" y="30" width="20" height="20" as="geometry" />
        </mxCell>
        <mxCell id="7RV0kOEFZEfuSwdYm8uq-32" value="" style="endArrow=none;html=1;rounded=0;" edge="1" parent="1">
          <mxGeometry width="50" height="50" relative="1" as="geometry">
            <mxPoint x="580" y="200" as="sourcePoint" />
            <mxPoint x="760" y="200" as="targetPoint" />
          </mxGeometry>
        </mxCell>
        <mxCell id="7RV0kOEFZEfuSwdYm8uq-33" value="t" style="text;html=1;strokeColor=none;fillColor=none;align=center;verticalAlign=middle;whiteSpace=wrap;rounded=0;fontStyle=1" vertex="1" parent="1">
          <mxGeometry x="750" y="180" width="30" height="30" as="geometry" />
        </mxCell>
        <mxCell id="7RV0kOEFZEfuSwdYm8uq-34" value="" style="endArrow=none;html=1;rounded=0;" edge="1" parent="1">
          <mxGeometry width="50" height="50" relative="1" as="geometry">
            <mxPoint x="580" y="200" as="sourcePoint" />
            <mxPoint x="580" y="50" as="targetPoint" />
          </mxGeometry>
        </mxCell>
        <mxCell id="7RV0kOEFZEfuSwdYm8uq-35" value="V" style="text;html=1;strokeColor=none;fillColor=none;align=center;verticalAlign=middle;whiteSpace=wrap;rounded=0;fontStyle=1" vertex="1" parent="1">
          <mxGeometry x="570" y="30" width="20" height="20" as="geometry" />
        </mxCell>
        <mxCell id="7RV0kOEFZEfuSwdYm8uq-36" value="Z&lt;sub&gt;0&amp;nbsp;&lt;/sub&gt;+ R&lt;sub&gt;S&lt;/sub&gt; = 50Ω" style="text;html=1;strokeColor=#d6b656;fillColor=#fff2cc;align=center;verticalAlign=middle;whiteSpace=wrap;rounded=0;" vertex="1" parent="1">
          <mxGeometry x="180" y="40" width="90" height="30" as="geometry" />
        </mxCell>
        <mxCell id="7RV0kOEFZEfuSwdYm8uq-37" value="Z&lt;sub&gt;0&amp;nbsp;&lt;/sub&gt;+ R&lt;sub&gt;S&lt;/sub&gt;&amp;nbsp;&amp;lt; 50Ω" style="text;html=1;strokeColor=#d6b656;fillColor=#fff2cc;align=center;verticalAlign=middle;whiteSpace=wrap;rounded=0;" vertex="1" parent="1">
          <mxGeometry x="430" y="40" width="90" height="30" as="geometry" />
        </mxCell>
        <mxCell id="7RV0kOEFZEfuSwdYm8uq-38" value="Z&lt;sub&gt;0&amp;nbsp;&lt;/sub&gt;+ R&lt;sub&gt;S&lt;/sub&gt;&amp;nbsp;&amp;gt; 50Ω" style="text;html=1;strokeColor=#d6b656;fillColor=#fff2cc;align=center;verticalAlign=middle;whiteSpace=wrap;rounded=0;" vertex="1" parent="1">
          <mxGeometry x="660" y="40" width="90" height="30" as="geometry" />
        </mxCell>
      </root>
    </mxGraphModel>
  </diagram>
  <diagram id="sEGZm4NDo9nwWd6WJsCe" name="Page-6">
    <mxGraphModel dx="386" dy="213" grid="1" gridSize="10" guides="1" tooltips="1" connect="1" arrows="1" fold="1" page="1" pageScale="1" pageWidth="827" pageHeight="1169" math="0" shadow="0">
      <root>
        <mxCell id="0" />
        <mxCell id="1" parent="0" />
        <mxCell id="N_kWAY0M6Nq8i4eImKpf-1" value="" style="shape=cylinder3;whiteSpace=wrap;html=1;boundedLbl=1;backgroundOutline=1;size=6.9109649658203125;rotation=-90;fillColor=#f8cecc;strokeColor=#b85450;" vertex="1" parent="1">
          <mxGeometry x="285" y="125" width="22.5" height="52.5" as="geometry" />
        </mxCell>
        <mxCell id="N_kWAY0M6Nq8i4eImKpf-2" value="50Ω" style="text;html=1;strokeColor=none;fillColor=none;align=center;verticalAlign=middle;whiteSpace=wrap;rounded=0;" vertex="1" parent="1">
          <mxGeometry x="266.25" y="113.75" width="60" height="30" as="geometry" />
        </mxCell>
        <mxCell id="N_kWAY0M6Nq8i4eImKpf-3" value="" style="pointerEvents=1;verticalLabelPosition=bottom;shadow=0;dashed=0;align=center;html=1;verticalAlign=top;shape=mxgraph.electrical.resistors.resistor_2;rotation=-180;" vertex="1" parent="1">
          <mxGeometry x="220" y="143.75" width="50" height="15" as="geometry" />
        </mxCell>
        <mxCell id="N_kWAY0M6Nq8i4eImKpf-4" value="Z&lt;span style=&quot;font-size: 10px;&quot;&gt;D&lt;/span&gt;" style="text;html=1;strokeColor=none;fillColor=none;align=center;verticalAlign=middle;whiteSpace=wrap;rounded=0;" vertex="1" parent="1">
          <mxGeometry x="170" y="110" width="60" height="30" as="geometry" />
        </mxCell>
        <mxCell id="N_kWAY0M6Nq8i4eImKpf-5" value="R&lt;sub&gt;S&lt;/sub&gt;" style="text;html=1;strokeColor=none;fillColor=none;align=center;verticalAlign=middle;whiteSpace=wrap;rounded=0;" vertex="1" parent="1">
          <mxGeometry x="215" y="113.75" width="60" height="30" as="geometry" />
        </mxCell>
        <mxCell id="N_kWAY0M6Nq8i4eImKpf-7" value="" style="endArrow=none;html=1;rounded=0;exitX=0.5;exitY=1;exitDx=0;exitDy=0;exitPerimeter=0;" edge="1" parent="1" source="N_kWAY0M6Nq8i4eImKpf-1">
          <mxGeometry width="50" height="50" relative="1" as="geometry">
            <mxPoint x="326.25" y="151.2" as="sourcePoint" />
            <mxPoint x="346.25" y="151.2" as="targetPoint" />
          </mxGeometry>
        </mxCell>
        <mxCell id="N_kWAY0M6Nq8i4eImKpf-8" value="" style="triangle;whiteSpace=wrap;html=1;fillColor=#f8cecc;strokeColor=#b85450;" vertex="1" parent="1">
          <mxGeometry x="180" y="126.75" width="40" height="49" as="geometry" />
        </mxCell>
      </root>
    </mxGraphModel>
  </diagram>
  <diagram id="e4eyH5vVeNbUf_U7JxGe" name="Page-7">
    <mxGraphModel dx="466" dy="257" grid="1" gridSize="10" guides="1" tooltips="1" connect="1" arrows="1" fold="1" page="1" pageScale="1" pageWidth="827" pageHeight="1169" math="0" shadow="0">
      <root>
        <mxCell id="0" />
        <mxCell id="1" parent="0" />
        <mxCell id="7qEZuwmGAFeRsCceCVLS-1" value="" style="shape=cylinder3;whiteSpace=wrap;html=1;boundedLbl=1;backgroundOutline=1;size=6.9109649658203125;rotation=-90;fillColor=#f8cecc;strokeColor=#b85450;" vertex="1" parent="1">
          <mxGeometry x="285" y="125" width="22.5" height="52.5" as="geometry" />
        </mxCell>
        <mxCell id="7qEZuwmGAFeRsCceCVLS-2" value="Z&lt;sub&gt;0&lt;/sub&gt;" style="text;html=1;strokeColor=none;fillColor=none;align=center;verticalAlign=middle;whiteSpace=wrap;rounded=0;" vertex="1" parent="1">
          <mxGeometry x="266.25" y="113.75" width="60" height="30" as="geometry" />
        </mxCell>
        <mxCell id="7qEZuwmGAFeRsCceCVLS-3" value="R&lt;span style=&quot;font-size: 10px;&quot;&gt;P&lt;/span&gt;" style="text;html=1;strokeColor=none;fillColor=none;align=center;verticalAlign=middle;whiteSpace=wrap;rounded=0;" vertex="1" parent="1">
          <mxGeometry x="340" y="177.5" width="35" height="26.25" as="geometry" />
        </mxCell>
        <mxCell id="7qEZuwmGAFeRsCceCVLS-4" value="Z&lt;sub&gt;0&lt;/sub&gt; = R&lt;sub&gt;P&lt;/sub&gt;" style="text;html=1;strokeColor=#d6b656;fillColor=#fff2cc;align=center;verticalAlign=middle;whiteSpace=wrap;rounded=0;" vertex="1" parent="1">
          <mxGeometry x="210" y="171.13" width="60" height="24.25" as="geometry" />
        </mxCell>
        <mxCell id="7qEZuwmGAFeRsCceCVLS-5" value="" style="endArrow=none;html=1;rounded=0;exitX=0.5;exitY=1;exitDx=0;exitDy=0;exitPerimeter=0;entryX=0;entryY=0.5;entryDx=0;entryDy=0;" edge="1" parent="1" source="7qEZuwmGAFeRsCceCVLS-1" target="7qEZuwmGAFeRsCceCVLS-6">
          <mxGeometry width="50" height="50" relative="1" as="geometry">
            <mxPoint x="326.25" y="151.2" as="sourcePoint" />
            <mxPoint x="346.25" y="151.2" as="targetPoint" />
          </mxGeometry>
        </mxCell>
        <mxCell id="7qEZuwmGAFeRsCceCVLS-6" value="" style="triangle;whiteSpace=wrap;html=1;fillColor=#f8cecc;strokeColor=#b85450;" vertex="1" parent="1">
          <mxGeometry x="350" y="126.75" width="40" height="49" as="geometry" />
        </mxCell>
        <mxCell id="7qEZuwmGAFeRsCceCVLS-7" style="edgeStyle=orthogonalEdgeStyle;rounded=0;orthogonalLoop=1;jettySize=auto;html=1;exitX=1;exitY=0.5;exitDx=0;exitDy=0;exitPerimeter=0;endArrow=none;endFill=0;" edge="1" parent="1" source="7qEZuwmGAFeRsCceCVLS-9">
          <mxGeometry relative="1" as="geometry">
            <mxPoint x="335" y="150" as="targetPoint" />
          </mxGeometry>
        </mxCell>
        <mxCell id="7qEZuwmGAFeRsCceCVLS-8" style="edgeStyle=orthogonalEdgeStyle;rounded=0;orthogonalLoop=1;jettySize=auto;html=1;entryX=0.5;entryY=0;entryDx=0;entryDy=0;entryPerimeter=0;endArrow=none;endFill=0;" edge="1" parent="1" source="7qEZuwmGAFeRsCceCVLS-9" target="7qEZuwmGAFeRsCceCVLS-10">
          <mxGeometry relative="1" as="geometry" />
        </mxCell>
        <mxCell id="7qEZuwmGAFeRsCceCVLS-9" value="" style="pointerEvents=1;verticalLabelPosition=bottom;shadow=0;dashed=0;align=center;html=1;verticalAlign=top;shape=mxgraph.electrical.resistors.resistor_2;rotation=-90;" vertex="1" parent="1">
          <mxGeometry x="310" y="175.75" width="50" height="15" as="geometry" />
        </mxCell>
        <mxCell id="7qEZuwmGAFeRsCceCVLS-10" value="" style="pointerEvents=1;verticalLabelPosition=bottom;shadow=0;dashed=0;align=center;html=1;verticalAlign=top;shape=mxgraph.electrical.signal_sources.protective_earth;" vertex="1" parent="1">
          <mxGeometry x="322.5" y="220" width="25" height="20" as="geometry" />
        </mxCell>
        <mxCell id="7qEZuwmGAFeRsCceCVLS-11" value="&lt;b&gt;OR&lt;/b&gt;" style="text;html=1;strokeColor=none;fillColor=none;align=center;verticalAlign=middle;whiteSpace=wrap;rounded=0;" vertex="1" parent="1">
          <mxGeometry x="206.25" y="136.25" width="60" height="30" as="geometry" />
        </mxCell>
        <mxCell id="7qEZuwmGAFeRsCceCVLS-12" value="" style="shape=cylinder3;whiteSpace=wrap;html=1;boundedLbl=1;backgroundOutline=1;size=6.9109649658203125;rotation=-90;fillColor=#f8cecc;strokeColor=#b85450;" vertex="1" parent="1">
          <mxGeometry x="105" y="125" width="22.5" height="52.5" as="geometry" />
        </mxCell>
        <mxCell id="7qEZuwmGAFeRsCceCVLS-13" value="Z&lt;sub&gt;0&lt;/sub&gt;" style="text;html=1;strokeColor=none;fillColor=none;align=center;verticalAlign=middle;whiteSpace=wrap;rounded=0;" vertex="1" parent="1">
          <mxGeometry x="86.25" y="113.75" width="60" height="30" as="geometry" />
        </mxCell>
        <mxCell id="7qEZuwmGAFeRsCceCVLS-14" value="R&lt;span style=&quot;font-size: 10px;&quot;&gt;P&lt;/span&gt;" style="text;html=1;strokeColor=none;fillColor=none;align=center;verticalAlign=middle;whiteSpace=wrap;rounded=0;" vertex="1" parent="1">
          <mxGeometry x="160" y="90" width="35" height="26.25" as="geometry" />
        </mxCell>
        <mxCell id="7qEZuwmGAFeRsCceCVLS-16" value="" style="endArrow=none;html=1;rounded=0;exitX=0.5;exitY=1;exitDx=0;exitDy=0;exitPerimeter=0;entryX=0;entryY=0.5;entryDx=0;entryDy=0;" edge="1" parent="1" source="7qEZuwmGAFeRsCceCVLS-12" target="7qEZuwmGAFeRsCceCVLS-17">
          <mxGeometry width="50" height="50" relative="1" as="geometry">
            <mxPoint x="146.25" y="151.2" as="sourcePoint" />
            <mxPoint x="166.25" y="151.2" as="targetPoint" />
          </mxGeometry>
        </mxCell>
        <mxCell id="7qEZuwmGAFeRsCceCVLS-17" value="" style="triangle;whiteSpace=wrap;html=1;fillColor=#f8cecc;strokeColor=#b85450;" vertex="1" parent="1">
          <mxGeometry x="170" y="126.75" width="40" height="49" as="geometry" />
        </mxCell>
        <mxCell id="7qEZuwmGAFeRsCceCVLS-20" value="" style="pointerEvents=1;verticalLabelPosition=bottom;shadow=0;dashed=0;align=center;html=1;verticalAlign=top;shape=mxgraph.electrical.resistors.resistor_2;rotation=-90;" vertex="1" parent="1">
          <mxGeometry x="130" y="113.75" width="50" height="15" as="geometry" />
        </mxCell>
        <mxCell id="7qEZuwmGAFeRsCceCVLS-22" value="" style="pointerEvents=1;verticalLabelPosition=bottom;shadow=0;dashed=0;align=center;html=1;verticalAlign=top;shape=mxgraph.electrical.signal_sources.signal_ground;rotation=-180;" vertex="1" parent="1">
          <mxGeometry x="141.25" y="70" width="27.5" height="20" as="geometry" />
        </mxCell>
        <mxCell id="7qEZuwmGAFeRsCceCVLS-25" style="edgeStyle=orthogonalEdgeStyle;rounded=0;orthogonalLoop=1;jettySize=auto;html=1;endArrow=none;endFill=0;" edge="1" parent="1">
          <mxGeometry relative="1" as="geometry">
            <mxPoint x="154.89000000000001" y="90" as="sourcePoint" />
            <mxPoint x="154.97" y="102.25" as="targetPoint" />
          </mxGeometry>
        </mxCell>
        <mxCell id="7qEZuwmGAFeRsCceCVLS-27" style="edgeStyle=orthogonalEdgeStyle;rounded=0;orthogonalLoop=1;jettySize=auto;html=1;endArrow=none;endFill=0;" edge="1" parent="1">
          <mxGeometry relative="1" as="geometry">
            <mxPoint x="154.9" y="137.25" as="sourcePoint" />
            <mxPoint x="154.98" y="149.5" as="targetPoint" />
          </mxGeometry>
        </mxCell>
        <mxCell id="7qEZuwmGAFeRsCceCVLS-28" value="(pullup)" style="text;html=1;strokeColor=none;fillColor=none;align=center;verticalAlign=middle;whiteSpace=wrap;rounded=0;" vertex="1" parent="1">
          <mxGeometry x="120" y="177.5" width="60" height="30" as="geometry" />
        </mxCell>
        <mxCell id="7qEZuwmGAFeRsCceCVLS-29" value="(pulldown)" style="text;html=1;strokeColor=none;fillColor=none;align=center;verticalAlign=middle;whiteSpace=wrap;rounded=0;" vertex="1" parent="1">
          <mxGeometry x="300" y="88.13" width="60" height="30" as="geometry" />
        </mxCell>
      </root>
    </mxGraphModel>
  </diagram>
  <diagram id="0l4OhwFK1Lsn124WNHVO" name="Page-8">
    <mxGraphModel dx="563" dy="310" grid="1" gridSize="10" guides="1" tooltips="1" connect="1" arrows="1" fold="1" page="1" pageScale="1" pageWidth="827" pageHeight="1169" math="1" shadow="0">
      <root>
        <mxCell id="0" />
        <mxCell id="1" parent="0" />
        <mxCell id="JESfK-q3sV1U7r7NXFrC-1" value="" style="shape=cylinder3;whiteSpace=wrap;html=1;boundedLbl=1;backgroundOutline=1;size=6.9109649658203125;rotation=-90;fillColor=#f8cecc;strokeColor=#b85450;" vertex="1" parent="1">
          <mxGeometry x="285" y="125" width="22.5" height="52.5" as="geometry" />
        </mxCell>
        <mxCell id="JESfK-q3sV1U7r7NXFrC-2" value="Z&lt;sub&gt;0&lt;/sub&gt;" style="text;html=1;strokeColor=none;fillColor=none;align=center;verticalAlign=middle;whiteSpace=wrap;rounded=0;" vertex="1" parent="1">
          <mxGeometry x="266.25" y="113.75" width="60" height="30" as="geometry" />
        </mxCell>
        <mxCell id="JESfK-q3sV1U7r7NXFrC-3" value="R&lt;span style=&quot;font-size: 10px;&quot;&gt;TL&lt;/span&gt;" style="text;html=1;strokeColor=none;fillColor=none;align=center;verticalAlign=middle;whiteSpace=wrap;rounded=0;" vertex="1" parent="1">
          <mxGeometry x="300" y="190" width="35" height="26.25" as="geometry" />
        </mxCell>
        <mxCell id="JESfK-q3sV1U7r7NXFrC-5" value="" style="endArrow=none;html=1;rounded=0;exitX=0.5;exitY=1;exitDx=0;exitDy=0;exitPerimeter=0;entryX=0;entryY=0.5;entryDx=0;entryDy=0;" edge="1" parent="1" source="JESfK-q3sV1U7r7NXFrC-1" target="JESfK-q3sV1U7r7NXFrC-6">
          <mxGeometry width="50" height="50" relative="1" as="geometry">
            <mxPoint x="326.25" y="151.2" as="sourcePoint" />
            <mxPoint x="346.25" y="151.2" as="targetPoint" />
          </mxGeometry>
        </mxCell>
        <mxCell id="JESfK-q3sV1U7r7NXFrC-6" value="" style="triangle;whiteSpace=wrap;html=1;fillColor=#f8cecc;strokeColor=#b85450;" vertex="1" parent="1">
          <mxGeometry x="350" y="126.75" width="40" height="49" as="geometry" />
        </mxCell>
        <mxCell id="JESfK-q3sV1U7r7NXFrC-7" style="edgeStyle=orthogonalEdgeStyle;rounded=0;orthogonalLoop=1;jettySize=auto;html=1;exitX=1;exitY=0.5;exitDx=0;exitDy=0;exitPerimeter=0;endArrow=none;endFill=0;" edge="1" parent="1" source="JESfK-q3sV1U7r7NXFrC-9">
          <mxGeometry relative="1" as="geometry">
            <mxPoint x="335" y="150" as="targetPoint" />
          </mxGeometry>
        </mxCell>
        <mxCell id="JESfK-q3sV1U7r7NXFrC-8" style="edgeStyle=orthogonalEdgeStyle;rounded=0;orthogonalLoop=1;jettySize=auto;html=1;entryX=0.5;entryY=0;entryDx=0;entryDy=0;entryPerimeter=0;endArrow=none;endFill=0;" edge="1" parent="1" source="JESfK-q3sV1U7r7NXFrC-9" target="JESfK-q3sV1U7r7NXFrC-10">
          <mxGeometry relative="1" as="geometry" />
        </mxCell>
        <mxCell id="JESfK-q3sV1U7r7NXFrC-9" value="" style="pointerEvents=1;verticalLabelPosition=bottom;shadow=0;dashed=0;align=center;html=1;verticalAlign=top;shape=mxgraph.electrical.resistors.resistor_2;rotation=-90;" vertex="1" parent="1">
          <mxGeometry x="310" y="175.75" width="50" height="15" as="geometry" />
        </mxCell>
        <mxCell id="JESfK-q3sV1U7r7NXFrC-10" value="" style="pointerEvents=1;verticalLabelPosition=bottom;shadow=0;dashed=0;align=center;html=1;verticalAlign=top;shape=mxgraph.electrical.signal_sources.protective_earth;" vertex="1" parent="1">
          <mxGeometry x="322.5" y="220" width="25" height="20" as="geometry" />
        </mxCell>
        <mxCell id="JESfK-q3sV1U7r7NXFrC-14" value="R&lt;span style=&quot;font-size: 10px;&quot;&gt;TH&lt;/span&gt;" style="text;html=1;strokeColor=none;fillColor=none;align=center;verticalAlign=middle;whiteSpace=wrap;rounded=0;" vertex="1" parent="1">
          <mxGeometry x="300" y="90" width="35" height="26.25" as="geometry" />
        </mxCell>
        <mxCell id="JESfK-q3sV1U7r7NXFrC-15" value="" style="endArrow=none;html=1;rounded=0;exitX=0.5;exitY=1;exitDx=0;exitDy=0;exitPerimeter=0;entryX=0;entryY=0.5;entryDx=0;entryDy=0;" edge="1" parent="1">
          <mxGeometry width="50" height="50" relative="1" as="geometry">
            <mxPoint x="322.5" y="151.25" as="sourcePoint" />
            <mxPoint x="350" y="151.25" as="targetPoint" />
          </mxGeometry>
        </mxCell>
        <mxCell id="JESfK-q3sV1U7r7NXFrC-17" value="" style="pointerEvents=1;verticalLabelPosition=bottom;shadow=0;dashed=0;align=center;html=1;verticalAlign=top;shape=mxgraph.electrical.resistors.resistor_2;rotation=-90;" vertex="1" parent="1">
          <mxGeometry x="310" y="113.75" width="50" height="15" as="geometry" />
        </mxCell>
        <mxCell id="JESfK-q3sV1U7r7NXFrC-18" value="" style="pointerEvents=1;verticalLabelPosition=bottom;shadow=0;dashed=0;align=center;html=1;verticalAlign=top;shape=mxgraph.electrical.signal_sources.signal_ground;rotation=-180;" vertex="1" parent="1">
          <mxGeometry x="321.25" y="70" width="27.5" height="20" as="geometry" />
        </mxCell>
        <mxCell id="JESfK-q3sV1U7r7NXFrC-19" style="edgeStyle=orthogonalEdgeStyle;rounded=0;orthogonalLoop=1;jettySize=auto;html=1;endArrow=none;endFill=0;" edge="1" parent="1">
          <mxGeometry relative="1" as="geometry">
            <mxPoint x="334.89" y="90" as="sourcePoint" />
            <mxPoint x="334.97" y="102.25" as="targetPoint" />
          </mxGeometry>
        </mxCell>
        <mxCell id="JESfK-q3sV1U7r7NXFrC-20" style="edgeStyle=orthogonalEdgeStyle;rounded=0;orthogonalLoop=1;jettySize=auto;html=1;endArrow=none;endFill=0;" edge="1" parent="1">
          <mxGeometry relative="1" as="geometry">
            <mxPoint x="334.9" y="137.25" as="sourcePoint" />
            <mxPoint x="334.98" y="149.5" as="targetPoint" />
          </mxGeometry>
        </mxCell>
        <mxCell id="JESfK-q3sV1U7r7NXFrC-23" value="$$Z_0=\frac{R_{TH}\cdot R_{TL}}{R_{TH} + R_{TL}}$$" style="text;html=1;strokeColor=#d6b656;fillColor=#fff2cc;align=center;verticalAlign=middle;whiteSpace=wrap;rounded=0;" vertex="1" parent="1">
          <mxGeometry x="370" y="175.75" width="120" height="38" as="geometry" />
        </mxCell>
      </root>
    </mxGraphModel>
  </diagram>
  <diagram id="Zsz3wD-GclhVe-hlgVIZ" name="Page-9">
    <mxGraphModel dx="563" dy="310" grid="1" gridSize="10" guides="1" tooltips="1" connect="1" arrows="1" fold="1" page="1" pageScale="1" pageWidth="827" pageHeight="1169" math="1" shadow="0">
      <root>
        <mxCell id="0" />
        <mxCell id="1" parent="0" />
        <mxCell id="8unQ900lyi6uMjytt9LY-1" value="" style="shape=cylinder3;whiteSpace=wrap;html=1;boundedLbl=1;backgroundOutline=1;size=6.9109649658203125;rotation=-90;fillColor=#f8cecc;strokeColor=#b85450;" vertex="1" parent="1">
          <mxGeometry x="285" y="125" width="22.5" height="52.5" as="geometry" />
        </mxCell>
        <mxCell id="8unQ900lyi6uMjytt9LY-2" value="Z&lt;sub&gt;0&lt;/sub&gt;" style="text;html=1;strokeColor=none;fillColor=none;align=center;verticalAlign=middle;whiteSpace=wrap;rounded=0;" vertex="1" parent="1">
          <mxGeometry x="266.25" y="113.75" width="60" height="30" as="geometry" />
        </mxCell>
        <mxCell id="8unQ900lyi6uMjytt9LY-4" value="" style="endArrow=none;html=1;rounded=0;exitX=0.5;exitY=1;exitDx=0;exitDy=0;exitPerimeter=0;entryX=0;entryY=0.5;entryDx=0;entryDy=0;" edge="1" parent="1" source="8unQ900lyi6uMjytt9LY-1" target="8unQ900lyi6uMjytt9LY-5">
          <mxGeometry width="50" height="50" relative="1" as="geometry">
            <mxPoint x="326.25" y="151.2" as="sourcePoint" />
            <mxPoint x="346.25" y="151.2" as="targetPoint" />
          </mxGeometry>
        </mxCell>
        <mxCell id="8unQ900lyi6uMjytt9LY-5" value="" style="triangle;whiteSpace=wrap;html=1;fillColor=#f8cecc;strokeColor=#b85450;" vertex="1" parent="1">
          <mxGeometry x="350" y="126.75" width="40" height="49" as="geometry" />
        </mxCell>
        <mxCell id="8unQ900lyi6uMjytt9LY-6" style="edgeStyle=orthogonalEdgeStyle;rounded=0;orthogonalLoop=1;jettySize=auto;html=1;exitX=1;exitY=0.5;exitDx=0;exitDy=0;exitPerimeter=0;endArrow=none;endFill=0;" edge="1" parent="1" source="8unQ900lyi6uMjytt9LY-17">
          <mxGeometry relative="1" as="geometry">
            <mxPoint x="335" y="150" as="targetPoint" />
            <mxPoint x="335" y="158.25" as="sourcePoint" />
          </mxGeometry>
        </mxCell>
        <mxCell id="8unQ900lyi6uMjytt9LY-7" style="edgeStyle=orthogonalEdgeStyle;rounded=0;orthogonalLoop=1;jettySize=auto;html=1;entryX=0.5;entryY=0;entryDx=0;entryDy=0;entryPerimeter=0;endArrow=none;endFill=0;" edge="1" parent="1" target="8unQ900lyi6uMjytt9LY-9">
          <mxGeometry relative="1" as="geometry">
            <mxPoint x="335.0191314329444" y="197.5" as="sourcePoint" />
          </mxGeometry>
        </mxCell>
        <mxCell id="8unQ900lyi6uMjytt9LY-9" value="" style="pointerEvents=1;verticalLabelPosition=bottom;shadow=0;dashed=0;align=center;html=1;verticalAlign=top;shape=mxgraph.electrical.signal_sources.protective_earth;" vertex="1" parent="1">
          <mxGeometry x="322.5" y="209.25" width="25" height="20" as="geometry" />
        </mxCell>
        <mxCell id="8unQ900lyi6uMjytt9LY-11" value="" style="endArrow=none;html=1;rounded=0;exitX=0.5;exitY=1;exitDx=0;exitDy=0;exitPerimeter=0;entryX=0;entryY=0.5;entryDx=0;entryDy=0;" edge="1" parent="1">
          <mxGeometry width="50" height="50" relative="1" as="geometry">
            <mxPoint x="322.5" y="151.25" as="sourcePoint" />
            <mxPoint x="350" y="151.25" as="targetPoint" />
          </mxGeometry>
        </mxCell>
        <mxCell id="8unQ900lyi6uMjytt9LY-13" value="" style="pointerEvents=1;verticalLabelPosition=bottom;shadow=0;dashed=0;align=center;html=1;verticalAlign=top;shape=mxgraph.electrical.signal_sources.signal_ground;rotation=-180;" vertex="1" parent="1">
          <mxGeometry x="321.25" y="70" width="27.5" height="20" as="geometry" />
        </mxCell>
        <mxCell id="8unQ900lyi6uMjytt9LY-14" style="edgeStyle=orthogonalEdgeStyle;rounded=0;orthogonalLoop=1;jettySize=auto;html=1;endArrow=none;endFill=0;" edge="1" parent="1">
          <mxGeometry relative="1" as="geometry">
            <mxPoint x="334.89" y="90" as="sourcePoint" />
            <mxPoint x="334.97" y="102.25" as="targetPoint" />
          </mxGeometry>
        </mxCell>
        <mxCell id="8unQ900lyi6uMjytt9LY-15" style="edgeStyle=orthogonalEdgeStyle;rounded=0;orthogonalLoop=1;jettySize=auto;html=1;endArrow=none;endFill=0;" edge="1" parent="1">
          <mxGeometry relative="1" as="geometry">
            <mxPoint x="334.9" y="137.25" as="sourcePoint" />
            <mxPoint x="334.98" y="149.5" as="targetPoint" />
          </mxGeometry>
        </mxCell>
        <mxCell id="8unQ900lyi6uMjytt9LY-16" value="" style="pointerEvents=1;fillColor=strokeColor;verticalLabelPosition=bottom;shadow=0;dashed=0;align=center;html=1;verticalAlign=top;shape=mxgraph.electrical.diodes.diode;rotation=-90;" vertex="1" parent="1">
          <mxGeometry x="315" y="106.75" width="40" height="20" as="geometry" />
        </mxCell>
        <mxCell id="8unQ900lyi6uMjytt9LY-17" value="" style="pointerEvents=1;fillColor=strokeColor;verticalLabelPosition=bottom;shadow=0;dashed=0;align=center;html=1;verticalAlign=top;shape=mxgraph.electrical.diodes.diode;rotation=-90;" vertex="1" parent="1">
          <mxGeometry x="315" y="177.5" width="40" height="20" as="geometry" />
        </mxCell>
        <mxCell id="C2Gs_3uDOwdoUmbXoQMY-1" value="" style="endArrow=none;html=1;rounded=0;entryX=0.008;entryY=0.496;entryDx=0;entryDy=0;entryPerimeter=0;edgeStyle=orthogonalEdgeStyle;strokeWidth=2;strokeColor=#CC0000;" edge="1" parent="1">
          <mxGeometry width="50" height="50" relative="1" as="geometry">
            <mxPoint x="400" y="160" as="sourcePoint" />
            <mxPoint x="420.08" y="128.58" as="targetPoint" />
            <Array as="points">
              <mxPoint x="420" y="160" />
              <mxPoint x="420" y="140" />
              <mxPoint x="420" y="140" />
            </Array>
          </mxGeometry>
        </mxCell>
        <mxCell id="C2Gs_3uDOwdoUmbXoQMY-2" value="" style="curved=1;endArrow=none;html=1;rounded=0;endFill=0;strokeWidth=2;strokeColor=#CC0000;" edge="1" parent="1">
          <mxGeometry width="50" height="50" relative="1" as="geometry">
            <mxPoint x="450" y="160" as="sourcePoint" />
            <mxPoint x="460" y="160" as="targetPoint" />
            <Array as="points">
              <mxPoint x="450" y="190" />
            </Array>
          </mxGeometry>
        </mxCell>
        <mxCell id="C2Gs_3uDOwdoUmbXoQMY-3" value="" style="endArrow=none;html=1;rounded=0;edgeStyle=orthogonalEdgeStyle;exitX=1.023;exitY=0.527;exitDx=0;exitDy=0;exitPerimeter=0;strokeWidth=2;strokeColor=#CC0000;" edge="1" parent="1">
          <mxGeometry width="50" height="50" relative="1" as="geometry">
            <mxPoint x="430" y="130" as="sourcePoint" />
            <mxPoint x="450" y="160" as="targetPoint" />
            <Array as="points">
              <mxPoint x="450" y="130" />
            </Array>
          </mxGeometry>
        </mxCell>
        <mxCell id="C2Gs_3uDOwdoUmbXoQMY-5" value="" style="curved=1;endArrow=none;html=1;rounded=0;endFill=0;strokeWidth=2;strokeColor=#CC0000;" edge="1" parent="1">
          <mxGeometry width="50" height="50" relative="1" as="geometry">
            <mxPoint x="420" y="130" as="sourcePoint" />
            <mxPoint x="430" y="130" as="targetPoint" />
            <Array as="points">
              <mxPoint x="420" y="100" />
            </Array>
          </mxGeometry>
        </mxCell>
        <mxCell id="C2Gs_3uDOwdoUmbXoQMY-7" value="" style="endArrow=none;html=1;rounded=0;edgeStyle=orthogonalEdgeStyle;exitX=1.023;exitY=0.527;exitDx=0;exitDy=0;exitPerimeter=0;strokeWidth=2;strokeColor=#CC0000;" edge="1" parent="1">
          <mxGeometry width="50" height="50" relative="1" as="geometry">
            <mxPoint x="460" y="160.01" as="sourcePoint" />
            <mxPoint x="480" y="160.01" as="targetPoint" />
            <Array as="points">
              <mxPoint x="480" y="160.01" />
            </Array>
          </mxGeometry>
        </mxCell>
        <mxCell id="C2Gs_3uDOwdoUmbXoQMY-8" value="" style="endArrow=none;html=1;rounded=0;entryX=0.008;entryY=0.496;entryDx=0;entryDy=0;entryPerimeter=0;edgeStyle=orthogonalEdgeStyle;strokeWidth=2;strokeColor=#CC0000;" edge="1" parent="1">
          <mxGeometry width="50" height="50" relative="1" as="geometry">
            <mxPoint x="460" y="160" as="sourcePoint" />
            <mxPoint x="480.0799999999999" y="128.58" as="targetPoint" />
            <Array as="points">
              <mxPoint x="480" y="160" />
              <mxPoint x="480" y="140" />
              <mxPoint x="480" y="140" />
            </Array>
          </mxGeometry>
        </mxCell>
        <mxCell id="C2Gs_3uDOwdoUmbXoQMY-9" value="" style="curved=1;endArrow=none;html=1;rounded=0;endFill=0;strokeWidth=2;strokeColor=#CC0000;" edge="1" parent="1">
          <mxGeometry width="50" height="50" relative="1" as="geometry">
            <mxPoint x="510" y="160" as="sourcePoint" />
            <mxPoint x="520" y="160" as="targetPoint" />
            <Array as="points">
              <mxPoint x="510" y="190" />
            </Array>
          </mxGeometry>
        </mxCell>
        <mxCell id="C2Gs_3uDOwdoUmbXoQMY-10" value="" style="endArrow=none;html=1;rounded=0;edgeStyle=orthogonalEdgeStyle;exitX=1.023;exitY=0.527;exitDx=0;exitDy=0;exitPerimeter=0;strokeWidth=2;strokeColor=#CC0000;" edge="1" parent="1">
          <mxGeometry width="50" height="50" relative="1" as="geometry">
            <mxPoint x="490" y="130" as="sourcePoint" />
            <mxPoint x="510" y="160" as="targetPoint" />
            <Array as="points">
              <mxPoint x="510" y="130" />
            </Array>
          </mxGeometry>
        </mxCell>
        <mxCell id="C2Gs_3uDOwdoUmbXoQMY-11" value="" style="curved=1;endArrow=none;html=1;rounded=0;endFill=0;strokeWidth=2;strokeColor=#CC0000;" edge="1" parent="1">
          <mxGeometry width="50" height="50" relative="1" as="geometry">
            <mxPoint x="480" y="130" as="sourcePoint" />
            <mxPoint x="490" y="130" as="targetPoint" />
            <Array as="points">
              <mxPoint x="480" y="100" />
            </Array>
          </mxGeometry>
        </mxCell>
        <mxCell id="C2Gs_3uDOwdoUmbXoQMY-12" value="" style="endArrow=none;html=1;rounded=0;edgeStyle=orthogonalEdgeStyle;exitX=1.023;exitY=0.527;exitDx=0;exitDy=0;exitPerimeter=0;strokeWidth=2;strokeColor=#CC0000;" edge="1" parent="1">
          <mxGeometry width="50" height="50" relative="1" as="geometry">
            <mxPoint x="520" y="160.01" as="sourcePoint" />
            <mxPoint x="540" y="160.01" as="targetPoint" />
            <Array as="points">
              <mxPoint x="540" y="160.01" />
            </Array>
          </mxGeometry>
        </mxCell>
        <mxCell id="C2Gs_3uDOwdoUmbXoQMY-13" value="" style="endArrow=none;dashed=1;html=1;rounded=0;strokeWidth=2;strokeColor=#3333FF;" edge="1" parent="1">
          <mxGeometry width="50" height="50" relative="1" as="geometry">
            <mxPoint x="400" y="120" as="sourcePoint" />
            <mxPoint x="540" y="120" as="targetPoint" />
          </mxGeometry>
        </mxCell>
        <mxCell id="C2Gs_3uDOwdoUmbXoQMY-14" value="" style="endArrow=none;dashed=1;html=1;rounded=0;strokeWidth=2;strokeColor=#3333FF;" edge="1" parent="1">
          <mxGeometry width="50" height="50" relative="1" as="geometry">
            <mxPoint x="400" y="170" as="sourcePoint" />
            <mxPoint x="540" y="170" as="targetPoint" />
          </mxGeometry>
        </mxCell>
        <mxCell id="C2Gs_3uDOwdoUmbXoQMY-15" value="&lt;font color=&quot;#3333ff&quot;&gt;&lt;b&gt;clamp&lt;/b&gt;&lt;/font&gt;" style="text;html=1;strokeColor=none;fillColor=none;align=center;verticalAlign=middle;whiteSpace=wrap;rounded=0;" vertex="1" parent="1">
          <mxGeometry x="500" y="90" width="60" height="30" as="geometry" />
        </mxCell>
      </root>
    </mxGraphModel>
  </diagram>
  <diagram id="2YJ9kOi6rEjki1K62-JC" name="Page-10">
    <mxGraphModel dx="629" dy="372" grid="1" gridSize="10" guides="1" tooltips="1" connect="1" arrows="1" fold="1" page="1" pageScale="1" pageWidth="827" pageHeight="1169" math="1" shadow="0">
      <root>
        <mxCell id="0" />
        <mxCell id="1" parent="0" />
        <mxCell id="fIZrYICwsyUOBn9ktprE-1" value="" style="endArrow=none;html=1;rounded=0;endFill=0;" edge="1" parent="1">
          <mxGeometry width="50" height="50" relative="1" as="geometry">
            <mxPoint x="160" y="545" as="sourcePoint" />
            <mxPoint x="187.88" y="545" as="targetPoint" />
          </mxGeometry>
        </mxCell>
        <mxCell id="fIZrYICwsyUOBn9ktprE-5" style="edgeStyle=orthogonalEdgeStyle;rounded=0;orthogonalLoop=1;jettySize=auto;html=1;entryX=0;entryY=0.5;entryDx=0;entryDy=0;" edge="1" parent="1" source="fIZrYICwsyUOBn9ktprE-6">
          <mxGeometry relative="1" as="geometry">
            <mxPoint x="294.07000000000403" y="544.9999999999999" as="targetPoint" />
          </mxGeometry>
        </mxCell>
        <mxCell id="fIZrYICwsyUOBn9ktprE-6" value="" style="pointerEvents=1;verticalLabelPosition=bottom;shadow=0;dashed=0;align=center;html=1;verticalAlign=top;shape=mxgraph.electrical.capacitors.capacitor_1;rotation=-180;" vertex="1" parent="1">
          <mxGeometry x="187.88" y="535" width="45" height="20" as="geometry" />
        </mxCell>
        <mxCell id="fIZrYICwsyUOBn9ktprE-7" value="" style="pointerEvents=1;verticalLabelPosition=bottom;shadow=0;dashed=0;align=center;html=1;verticalAlign=top;shape=mxgraph.electrical.resistors.resistor_2;rotation=90;" vertex="1" parent="1">
          <mxGeometry x="247.88" y="560" width="32.25" height="6.25" as="geometry" />
        </mxCell>
        <mxCell id="fIZrYICwsyUOBn9ktprE-8" value="" style="pointerEvents=1;verticalLabelPosition=bottom;shadow=0;dashed=0;align=center;html=1;verticalAlign=top;shape=mxgraph.electrical.resistors.resistor_2;rotation=90;" vertex="1" parent="1">
          <mxGeometry x="247.88" y="590" width="32.25" height="6.25" as="geometry" />
        </mxCell>
        <mxCell id="fIZrYICwsyUOBn9ktprE-9" style="edgeStyle=orthogonalEdgeStyle;rounded=0;orthogonalLoop=1;jettySize=auto;html=1;endArrow=none;endFill=0;" edge="1" parent="1" source="fIZrYICwsyUOBn9ktprE-10">
          <mxGeometry relative="1" as="geometry">
            <mxPoint x="262.88" y="580" as="targetPoint" />
          </mxGeometry>
        </mxCell>
        <mxCell id="fIZrYICwsyUOBn9ktprE-10" value="" style="pointerEvents=1;verticalLabelPosition=bottom;shadow=0;dashed=0;align=center;html=1;verticalAlign=top;shape=mxgraph.electrical.capacitors.capacitor_1;rotation=-180;" vertex="1" parent="1">
          <mxGeometry x="197.88" y="570" width="45" height="20" as="geometry" />
        </mxCell>
        <mxCell id="fIZrYICwsyUOBn9ktprE-11" style="edgeStyle=orthogonalEdgeStyle;rounded=0;orthogonalLoop=1;jettySize=auto;html=1;entryX=1;entryY=0.5;entryDx=0;entryDy=0;entryPerimeter=0;endArrow=none;endFill=0;" edge="1" parent="1" source="fIZrYICwsyUOBn9ktprE-12" target="fIZrYICwsyUOBn9ktprE-10">
          <mxGeometry relative="1" as="geometry">
            <Array as="points">
              <mxPoint x="187.88" y="580" />
            </Array>
          </mxGeometry>
        </mxCell>
        <mxCell id="fIZrYICwsyUOBn9ktprE-12" value="" style="pointerEvents=1;verticalLabelPosition=bottom;shadow=0;dashed=0;align=center;html=1;verticalAlign=top;shape=mxgraph.electrical.signal_sources.signal_ground;" vertex="1" parent="1">
          <mxGeometry x="182.88" y="586.25" width="10" height="10" as="geometry" />
        </mxCell>
        <mxCell id="fIZrYICwsyUOBn9ktprE-13" value="" style="endArrow=none;html=1;rounded=0;endFill=0;" edge="1" parent="1">
          <mxGeometry width="50" height="50" relative="1" as="geometry">
            <mxPoint x="160" y="615" as="sourcePoint" />
            <mxPoint x="185.38" y="615" as="targetPoint" />
          </mxGeometry>
        </mxCell>
        <mxCell id="fIZrYICwsyUOBn9ktprE-16" style="edgeStyle=orthogonalEdgeStyle;rounded=0;orthogonalLoop=1;jettySize=auto;html=1;entryX=0;entryY=0.5;entryDx=0;entryDy=0;" edge="1" parent="1" source="fIZrYICwsyUOBn9ktprE-17">
          <mxGeometry relative="1" as="geometry">
            <mxPoint x="291.56999999999994" y="614.9999999999999" as="targetPoint" />
          </mxGeometry>
        </mxCell>
        <mxCell id="fIZrYICwsyUOBn9ktprE-17" value="" style="pointerEvents=1;verticalLabelPosition=bottom;shadow=0;dashed=0;align=center;html=1;verticalAlign=top;shape=mxgraph.electrical.capacitors.capacitor_1;rotation=-180;" vertex="1" parent="1">
          <mxGeometry x="185.38" y="605" width="45" height="20" as="geometry" />
        </mxCell>
        <mxCell id="fIZrYICwsyUOBn9ktprE-19" style="edgeStyle=orthogonalEdgeStyle;rounded=0;orthogonalLoop=1;jettySize=auto;html=1;exitX=1;exitY=0.5;exitDx=0;exitDy=0;exitPerimeter=0;endArrow=none;endFill=0;" edge="1" parent="1">
          <mxGeometry relative="1" as="geometry">
            <mxPoint x="263.7669767441861" y="616" as="targetPoint" />
            <mxPoint x="263.86" y="605" as="sourcePoint" />
          </mxGeometry>
        </mxCell>
        <mxCell id="fIZrYICwsyUOBn9ktprE-22" value="&lt;font color=&quot;#ff8000&quot;&gt;0.1uF&lt;/font&gt;" style="text;html=1;strokeColor=none;fillColor=none;align=center;verticalAlign=middle;whiteSpace=wrap;rounded=0;" vertex="1" parent="1">
          <mxGeometry x="190.38" y="620" width="40" height="30" as="geometry" />
        </mxCell>
        <mxCell id="fIZrYICwsyUOBn9ktprE-23" value="&lt;font color=&quot;#ff8000&quot;&gt;49.9Ω&lt;/font&gt;" style="text;html=1;strokeColor=none;fillColor=none;align=center;verticalAlign=middle;whiteSpace=wrap;rounded=0;" vertex="1" parent="1">
          <mxGeometry x="270" y="550" width="40" height="30" as="geometry" />
        </mxCell>
        <mxCell id="fIZrYICwsyUOBn9ktprE-24" value="&lt;font color=&quot;#ff8000&quot;&gt;49.9Ω&lt;/font&gt;" style="text;html=1;strokeColor=none;fillColor=none;align=center;verticalAlign=middle;whiteSpace=wrap;rounded=0;" vertex="1" parent="1">
          <mxGeometry x="270" y="585.94" width="40" height="30" as="geometry" />
        </mxCell>
        <mxCell id="fIZrYICwsyUOBn9ktprE-25" value="&lt;font color=&quot;#ff8000&quot;&gt;56pF&lt;/font&gt;" style="text;html=1;strokeColor=none;fillColor=none;align=center;verticalAlign=middle;whiteSpace=wrap;rounded=0;" vertex="1" parent="1">
          <mxGeometry x="220" y="550" width="40" height="30" as="geometry" />
        </mxCell>
        <mxCell id="fIZrYICwsyUOBn9ktprE-32" value="" style="ellipse;whiteSpace=wrap;html=1;aspect=fixed;" vertex="1" parent="1">
          <mxGeometry x="143.94" y="535" width="20" height="20" as="geometry" />
        </mxCell>
        <mxCell id="fIZrYICwsyUOBn9ktprE-33" value="" style="ellipse;whiteSpace=wrap;html=1;aspect=fixed;" vertex="1" parent="1">
          <mxGeometry x="148.94" y="540" width="10" height="10" as="geometry" />
        </mxCell>
        <mxCell id="fIZrYICwsyUOBn9ktprE-35" value="" style="ellipse;whiteSpace=wrap;html=1;aspect=fixed;" vertex="1" parent="1">
          <mxGeometry x="141.44" y="605" width="20" height="20" as="geometry" />
        </mxCell>
        <mxCell id="fIZrYICwsyUOBn9ktprE-36" value="" style="ellipse;whiteSpace=wrap;html=1;aspect=fixed;" vertex="1" parent="1">
          <mxGeometry x="146.44" y="610" width="10" height="10" as="geometry" />
        </mxCell>
        <mxCell id="fIZrYICwsyUOBn9ktprE-38" value="&lt;font color=&quot;#ff8000&quot;&gt;0.1uF&lt;/font&gt;" style="text;html=1;strokeColor=none;fillColor=none;align=center;verticalAlign=middle;whiteSpace=wrap;rounded=0;" vertex="1" parent="1">
          <mxGeometry x="190.38" y="510" width="40" height="30" as="geometry" />
        </mxCell>
        <mxCell id="fIZrYICwsyUOBn9ktprE-39" value="" style="endArrow=none;html=1;rounded=0;endFill=0;entryX=1;entryY=0.5;entryDx=0;entryDy=0;entryPerimeter=0;" edge="1" parent="1" target="fIZrYICwsyUOBn9ktprE-62">
          <mxGeometry width="50" height="50" relative="1" as="geometry">
            <mxPoint x="388.56" y="545" as="sourcePoint" />
            <mxPoint x="416.44" y="545" as="targetPoint" />
          </mxGeometry>
        </mxCell>
        <mxCell id="fIZrYICwsyUOBn9ktprE-40" style="edgeStyle=orthogonalEdgeStyle;rounded=0;orthogonalLoop=1;jettySize=auto;html=1;entryX=0;entryY=0.5;entryDx=0;entryDy=0;exitX=0;exitY=0.5;exitDx=0;exitDy=0;exitPerimeter=0;" edge="1" parent="1" source="fIZrYICwsyUOBn9ktprE-62">
          <mxGeometry relative="1" as="geometry">
            <mxPoint x="522.630000000004" y="544.9999999999999" as="targetPoint" />
            <mxPoint x="461.44000000000005" y="545" as="sourcePoint" />
          </mxGeometry>
        </mxCell>
        <mxCell id="fIZrYICwsyUOBn9ktprE-42" value="" style="pointerEvents=1;verticalLabelPosition=bottom;shadow=0;dashed=0;align=center;html=1;verticalAlign=top;shape=mxgraph.electrical.resistors.resistor_2;rotation=90;" vertex="1" parent="1">
          <mxGeometry x="476.44" y="560" width="32.25" height="6.25" as="geometry" />
        </mxCell>
        <mxCell id="fIZrYICwsyUOBn9ktprE-43" value="" style="pointerEvents=1;verticalLabelPosition=bottom;shadow=0;dashed=0;align=center;html=1;verticalAlign=top;shape=mxgraph.electrical.resistors.resistor_2;rotation=90;" vertex="1" parent="1">
          <mxGeometry x="476.44" y="590" width="32.25" height="6.25" as="geometry" />
        </mxCell>
        <mxCell id="fIZrYICwsyUOBn9ktprE-44" style="edgeStyle=orthogonalEdgeStyle;rounded=0;orthogonalLoop=1;jettySize=auto;html=1;endArrow=none;endFill=0;" edge="1" parent="1" source="fIZrYICwsyUOBn9ktprE-45">
          <mxGeometry relative="1" as="geometry">
            <mxPoint x="491.44" y="580" as="targetPoint" />
          </mxGeometry>
        </mxCell>
        <mxCell id="fIZrYICwsyUOBn9ktprE-45" value="" style="pointerEvents=1;verticalLabelPosition=bottom;shadow=0;dashed=0;align=center;html=1;verticalAlign=top;shape=mxgraph.electrical.capacitors.capacitor_1;rotation=-180;" vertex="1" parent="1">
          <mxGeometry x="426.44" y="570" width="45" height="20" as="geometry" />
        </mxCell>
        <mxCell id="fIZrYICwsyUOBn9ktprE-46" style="edgeStyle=orthogonalEdgeStyle;rounded=0;orthogonalLoop=1;jettySize=auto;html=1;entryX=1;entryY=0.5;entryDx=0;entryDy=0;entryPerimeter=0;endArrow=none;endFill=0;" edge="1" parent="1" source="fIZrYICwsyUOBn9ktprE-47" target="fIZrYICwsyUOBn9ktprE-45">
          <mxGeometry relative="1" as="geometry">
            <Array as="points">
              <mxPoint x="416.44" y="580" />
            </Array>
          </mxGeometry>
        </mxCell>
        <mxCell id="fIZrYICwsyUOBn9ktprE-47" value="" style="pointerEvents=1;verticalLabelPosition=bottom;shadow=0;dashed=0;align=center;html=1;verticalAlign=top;shape=mxgraph.electrical.signal_sources.signal_ground;" vertex="1" parent="1">
          <mxGeometry x="411.44" y="586.25" width="10" height="10" as="geometry" />
        </mxCell>
        <mxCell id="fIZrYICwsyUOBn9ktprE-48" value="" style="endArrow=none;html=1;rounded=0;endFill=0;entryX=1;entryY=0.5;entryDx=0;entryDy=0;entryPerimeter=0;" edge="1" parent="1" target="fIZrYICwsyUOBn9ktprE-63">
          <mxGeometry width="50" height="50" relative="1" as="geometry">
            <mxPoint x="388.56" y="615" as="sourcePoint" />
            <mxPoint x="413.94" y="615" as="targetPoint" />
          </mxGeometry>
        </mxCell>
        <mxCell id="fIZrYICwsyUOBn9ktprE-49" style="edgeStyle=orthogonalEdgeStyle;rounded=0;orthogonalLoop=1;jettySize=auto;html=1;entryX=0;entryY=0.5;entryDx=0;entryDy=0;exitX=0;exitY=0.5;exitDx=0;exitDy=0;exitPerimeter=0;" edge="1" parent="1" source="fIZrYICwsyUOBn9ktprE-63">
          <mxGeometry relative="1" as="geometry">
            <mxPoint x="520.1299999999999" y="614.9999999999999" as="targetPoint" />
            <mxPoint x="458.94000000000005" y="615" as="sourcePoint" />
          </mxGeometry>
        </mxCell>
        <mxCell id="fIZrYICwsyUOBn9ktprE-51" style="edgeStyle=orthogonalEdgeStyle;rounded=0;orthogonalLoop=1;jettySize=auto;html=1;exitX=1;exitY=0.5;exitDx=0;exitDy=0;exitPerimeter=0;endArrow=none;endFill=0;" edge="1" parent="1">
          <mxGeometry relative="1" as="geometry">
            <mxPoint x="492.3269767441861" y="616" as="targetPoint" />
            <mxPoint x="492.42" y="605" as="sourcePoint" />
          </mxGeometry>
        </mxCell>
        <mxCell id="fIZrYICwsyUOBn9ktprE-52" value="&lt;font color=&quot;#ff8000&quot;&gt;0Ω&lt;/font&gt;" style="text;html=1;strokeColor=none;fillColor=none;align=center;verticalAlign=middle;whiteSpace=wrap;rounded=0;" vertex="1" parent="1">
          <mxGeometry x="422.82" y="618.13" width="31.06" height="18.12" as="geometry" />
        </mxCell>
        <mxCell id="fIZrYICwsyUOBn9ktprE-53" value="&lt;font color=&quot;#ff8000&quot;&gt;49.9Ω&lt;/font&gt;" style="text;html=1;strokeColor=none;fillColor=none;align=center;verticalAlign=middle;whiteSpace=wrap;rounded=0;" vertex="1" parent="1">
          <mxGeometry x="498.56" y="550" width="40" height="30" as="geometry" />
        </mxCell>
        <mxCell id="fIZrYICwsyUOBn9ktprE-54" value="&lt;font color=&quot;#ff8000&quot;&gt;49.9Ω&lt;/font&gt;" style="text;html=1;strokeColor=none;fillColor=none;align=center;verticalAlign=middle;whiteSpace=wrap;rounded=0;" vertex="1" parent="1">
          <mxGeometry x="498.56" y="585.94" width="40" height="30" as="geometry" />
        </mxCell>
        <mxCell id="fIZrYICwsyUOBn9ktprE-55" value="&lt;font color=&quot;#ff8000&quot;&gt;56pF&lt;/font&gt;" style="text;html=1;strokeColor=none;fillColor=none;align=center;verticalAlign=middle;whiteSpace=wrap;rounded=0;" vertex="1" parent="1">
          <mxGeometry x="448.56" y="550" width="40" height="30" as="geometry" />
        </mxCell>
        <mxCell id="fIZrYICwsyUOBn9ktprE-56" value="" style="ellipse;whiteSpace=wrap;html=1;aspect=fixed;" vertex="1" parent="1">
          <mxGeometry x="372.5" y="535" width="20" height="20" as="geometry" />
        </mxCell>
        <mxCell id="fIZrYICwsyUOBn9ktprE-57" value="" style="ellipse;whiteSpace=wrap;html=1;aspect=fixed;" vertex="1" parent="1">
          <mxGeometry x="377.5" y="540" width="10" height="10" as="geometry" />
        </mxCell>
        <mxCell id="fIZrYICwsyUOBn9ktprE-58" value="" style="ellipse;whiteSpace=wrap;html=1;aspect=fixed;" vertex="1" parent="1">
          <mxGeometry x="370" y="605" width="20" height="20" as="geometry" />
        </mxCell>
        <mxCell id="fIZrYICwsyUOBn9ktprE-59" value="" style="ellipse;whiteSpace=wrap;html=1;aspect=fixed;" vertex="1" parent="1">
          <mxGeometry x="375" y="610" width="10" height="10" as="geometry" />
        </mxCell>
        <mxCell id="fIZrYICwsyUOBn9ktprE-60" value="&lt;font color=&quot;#ff8000&quot;&gt;0Ω&lt;/font&gt;" style="text;html=1;strokeColor=none;fillColor=none;align=center;verticalAlign=middle;whiteSpace=wrap;rounded=0;" vertex="1" parent="1">
          <mxGeometry x="418.95" y="520" width="40" height="21.88" as="geometry" />
        </mxCell>
        <mxCell id="fIZrYICwsyUOBn9ktprE-61" value="vs" style="text;html=1;strokeColor=none;fillColor=none;align=center;verticalAlign=middle;whiteSpace=wrap;rounded=0;fontStyle=1" vertex="1" parent="1">
          <mxGeometry x="310" y="565" width="60" height="30" as="geometry" />
        </mxCell>
        <mxCell id="fIZrYICwsyUOBn9ktprE-62" value="" style="pointerEvents=1;verticalLabelPosition=bottom;shadow=0;dashed=0;align=center;html=1;verticalAlign=top;shape=mxgraph.electrical.resistors.resistor_2;rotation=-180;" vertex="1" parent="1">
          <mxGeometry x="422.82" y="541.88" width="32.25" height="6.25" as="geometry" />
        </mxCell>
        <mxCell id="fIZrYICwsyUOBn9ktprE-63" value="" style="pointerEvents=1;verticalLabelPosition=bottom;shadow=0;dashed=0;align=center;html=1;verticalAlign=top;shape=mxgraph.electrical.resistors.resistor_2;rotation=-180;" vertex="1" parent="1">
          <mxGeometry x="422.82" y="611.88" width="32.25" height="6.25" as="geometry" />
        </mxCell>
        <mxCell id="fIZrYICwsyUOBn9ktprE-65" value="" style="ellipse;whiteSpace=wrap;html=1;fillColor=none;strokeWidth=2;strokeColor=#FF0000;" vertex="1" parent="1">
          <mxGeometry x="182.88" y="505" width="54.62" height="55" as="geometry" />
        </mxCell>
        <mxCell id="fIZrYICwsyUOBn9ktprE-66" value="" style="ellipse;whiteSpace=wrap;html=1;fillColor=none;strokeWidth=2;strokeColor=#FF0000;" vertex="1" parent="1">
          <mxGeometry x="180.57" y="599.69" width="54.62" height="55" as="geometry" />
        </mxCell>
      </root>
    </mxGraphModel>
  </diagram>
  <diagram id="CgTx3_ctFniHoBcOs4jr" name="Page-11">
    <mxGraphModel dx="1374" dy="323" grid="1" gridSize="10" guides="1" tooltips="1" connect="1" arrows="1" fold="1" page="1" pageScale="1" pageWidth="827" pageHeight="1169" math="1" shadow="0">
      <root>
        <mxCell id="0" />
        <mxCell id="1" parent="0" />
        <mxCell id="DqOMPUSFJoZFqHE5Gij2-8" value="" style="endArrow=none;html=1;rounded=0;" edge="1" parent="1">
          <mxGeometry width="50" height="50" relative="1" as="geometry">
            <mxPoint x="-184" y="198" as="sourcePoint" />
            <mxPoint x="-144" y="198" as="targetPoint" />
          </mxGeometry>
        </mxCell>
        <mxCell id="DqOMPUSFJoZFqHE5Gij2-9" value="" style="endArrow=none;html=1;rounded=0;exitX=0;exitY=1;exitDx=0;exitDy=0;exitPerimeter=0;edgeStyle=orthogonalEdgeStyle;" edge="1" parent="1" source="DqOMPUSFJoZFqHE5Gij2-11">
          <mxGeometry width="50" height="50" relative="1" as="geometry">
            <mxPoint x="-164" y="228" as="sourcePoint" />
            <mxPoint x="-164" y="198" as="targetPoint" />
            <Array as="points">
              <mxPoint x="-164" y="236" />
            </Array>
          </mxGeometry>
        </mxCell>
        <mxCell id="DqOMPUSFJoZFqHE5Gij2-10" style="edgeStyle=orthogonalEdgeStyle;rounded=0;orthogonalLoop=1;jettySize=auto;html=1;exitX=1;exitY=1;exitDx=0;exitDy=0;exitPerimeter=0;entryX=0.5;entryY=0;entryDx=0;entryDy=0;" edge="1" parent="1" source="DqOMPUSFJoZFqHE5Gij2-11" target="DqOMPUSFJoZFqHE5Gij2-44">
          <mxGeometry relative="1" as="geometry">
            <mxPoint x="62.379999999999995" y="232.81395348837214" as="targetPoint" />
            <Array as="points">
              <mxPoint x="125" y="235" />
            </Array>
          </mxGeometry>
        </mxCell>
        <mxCell id="DqOMPUSFJoZFqHE5Gij2-11" value="" style="pointerEvents=1;verticalLabelPosition=bottom;shadow=0;dashed=0;align=center;html=1;verticalAlign=top;shape=mxgraph.electrical.inductors.inductor_3;" vertex="1" parent="1">
          <mxGeometry x="-129" y="228" width="45" height="8" as="geometry" />
        </mxCell>
        <mxCell id="DqOMPUSFJoZFqHE5Gij2-12" value="" style="pointerEvents=1;verticalLabelPosition=bottom;shadow=0;dashed=0;align=center;html=1;verticalAlign=top;shape=mxgraph.electrical.capacitors.capacitor_1;rotation=90;" vertex="1" parent="1">
          <mxGeometry x="-55" y="248" width="45" height="20" as="geometry" />
        </mxCell>
        <mxCell id="DqOMPUSFJoZFqHE5Gij2-13" value="" style="pointerEvents=1;verticalLabelPosition=bottom;shadow=0;dashed=0;align=center;html=1;verticalAlign=top;shape=mxgraph.electrical.signal_sources.signal_ground;" vertex="1" parent="1">
          <mxGeometry x="-42.5" y="278" width="20" height="20" as="geometry" />
        </mxCell>
        <mxCell id="DqOMPUSFJoZFqHE5Gij2-14" value="" style="pointerEvents=1;verticalLabelPosition=bottom;shadow=0;dashed=0;align=center;html=1;verticalAlign=top;shape=mxgraph.electrical.capacitors.capacitor_1;rotation=90;" vertex="1" parent="1">
          <mxGeometry x="-10" y="248" width="45" height="20" as="geometry" />
        </mxCell>
        <mxCell id="DqOMPUSFJoZFqHE5Gij2-15" value="" style="pointerEvents=1;verticalLabelPosition=bottom;shadow=0;dashed=0;align=center;html=1;verticalAlign=top;shape=mxgraph.electrical.signal_sources.signal_ground;" vertex="1" parent="1">
          <mxGeometry x="2.5" y="278" width="20" height="20" as="geometry" />
        </mxCell>
        <mxCell id="DqOMPUSFJoZFqHE5Gij2-16" value="" style="pointerEvents=1;verticalLabelPosition=bottom;shadow=0;dashed=0;align=center;html=1;verticalAlign=top;shape=mxgraph.electrical.capacitors.capacitor_1;rotation=90;" vertex="1" parent="1">
          <mxGeometry x="34.99999999999999" y="248" width="45" height="20" as="geometry" />
        </mxCell>
        <mxCell id="DqOMPUSFJoZFqHE5Gij2-17" value="" style="pointerEvents=1;verticalLabelPosition=bottom;shadow=0;dashed=0;align=center;html=1;verticalAlign=top;shape=mxgraph.electrical.signal_sources.signal_ground;" vertex="1" parent="1">
          <mxGeometry x="47.49999999999999" y="278" width="20" height="20" as="geometry" />
        </mxCell>
        <mxCell id="DqOMPUSFJoZFqHE5Gij2-44" value="Block X" style="rounded=0;whiteSpace=wrap;html=1;" vertex="1" parent="1">
          <mxGeometry x="80" y="330" width="90" height="60" as="geometry" />
        </mxCell>
        <mxCell id="DqOMPUSFJoZFqHE5Gij2-51" value="VDD" style="text;html=1;strokeColor=none;fillColor=none;align=center;verticalAlign=middle;whiteSpace=wrap;rounded=0;" vertex="1" parent="1">
          <mxGeometry x="-189" y="168" width="60" height="30" as="geometry" />
        </mxCell>
        <mxCell id="DqOMPUSFJoZFqHE5Gij2-61" value="&lt;font color=&quot;#ff8000&quot;&gt;47uF&lt;/font&gt;" style="text;html=1;strokeColor=none;fillColor=none;align=center;verticalAlign=middle;whiteSpace=wrap;rounded=0;" vertex="1" parent="1">
          <mxGeometry x="-70" y="236" width="40" height="22" as="geometry" />
        </mxCell>
        <mxCell id="DqOMPUSFJoZFqHE5Gij2-62" value="&lt;font color=&quot;#ff8000&quot;&gt;4.7uF&lt;/font&gt;" style="text;html=1;strokeColor=none;fillColor=none;align=center;verticalAlign=middle;whiteSpace=wrap;rounded=0;" vertex="1" parent="1">
          <mxGeometry x="-22.5" y="241" width="32.5" height="12" as="geometry" />
        </mxCell>
        <mxCell id="DqOMPUSFJoZFqHE5Gij2-63" value="&lt;font color=&quot;#ff8000&quot;&gt;0.47uF&lt;/font&gt;" style="text;html=1;strokeColor=none;fillColor=none;align=center;verticalAlign=middle;whiteSpace=wrap;rounded=0;" vertex="1" parent="1">
          <mxGeometry x="17.5" y="236" width="42.5" height="22" as="geometry" />
        </mxCell>
        <mxCell id="DqOMPUSFJoZFqHE5Gij2-66" value="&lt;font color=&quot;#cc0000&quot;&gt;Supply Capacitors&lt;/font&gt;" style="text;html=1;strokeColor=none;fillColor=none;align=center;verticalAlign=middle;whiteSpace=wrap;rounded=0;fontStyle=1" vertex="1" parent="1">
          <mxGeometry x="27.5" y="190" width="60" height="30" as="geometry" />
        </mxCell>
        <mxCell id="DqOMPUSFJoZFqHE5Gij2-71" value="" style="rounded=0;whiteSpace=wrap;html=1;fillColor=none;strokeColor=#CC0000;strokeWidth=2;dashed=1;" vertex="1" parent="1">
          <mxGeometry x="-72.5" y="228" width="152.5" height="82" as="geometry" />
        </mxCell>
      </root>
    </mxGraphModel>
  </diagram>
</mxfile>
